%FSLAX34Y34*%
G04 Gerber Fmt 3.4, Leading zero omitted, Abs format*
G04 (created by PCBNEW (2014-05-21 BZR 4875)-product) date Monday 14 July 2014 12:06:10 PM IST*
%MOIN*%
G01*
G70*
G90*
G04 APERTURE LIST*
%ADD10C,0.005906*%
%ADD11C,0.010000*%
%ADD12C,0.003150*%
%ADD13C,0.003937*%
%ADD14C,0.005000*%
%ADD15C,0.007874*%
%ADD16C,0.015000*%
%ADD17R,0.350000X0.090000*%
%ADD18C,0.079055*%
%ADD19R,0.079055X0.079055*%
%ADD20C,0.086929*%
%ADD21R,0.086929X0.086929*%
%ADD22R,0.075118X0.075118*%
%ADD23C,0.075118*%
G04 APERTURE END LIST*
G54D10*
G54D11*
X10629Y-15551D02*
X11417Y-15551D01*
X12204Y-16338D02*
X12303Y-16240D01*
X12106Y-16338D02*
X12204Y-16338D01*
X10728Y-16338D02*
X12106Y-16338D01*
G54D12*
X12481Y-15167D02*
X12455Y-15160D01*
X12417Y-15160D01*
X12379Y-15167D01*
X12353Y-15180D01*
X12341Y-15193D01*
X12328Y-15219D01*
X12328Y-15239D01*
X12341Y-15265D01*
X12353Y-15278D01*
X12379Y-15291D01*
X12417Y-15298D01*
X12443Y-15298D01*
X12481Y-15291D01*
X12494Y-15285D01*
X12494Y-15239D01*
X12443Y-15239D01*
X12608Y-15298D02*
X12608Y-15160D01*
X12761Y-15298D01*
X12761Y-15160D01*
X12889Y-15298D02*
X12889Y-15160D01*
X12953Y-15160D01*
X12991Y-15167D01*
X13016Y-15180D01*
X13029Y-15193D01*
X13042Y-15219D01*
X13042Y-15239D01*
X13029Y-15265D01*
X13016Y-15278D01*
X12991Y-15291D01*
X12953Y-15298D01*
X12889Y-15298D01*
X13361Y-15298D02*
X13361Y-15160D01*
X13463Y-15160D01*
X13488Y-15167D01*
X13501Y-15173D01*
X13514Y-15187D01*
X13514Y-15206D01*
X13501Y-15219D01*
X13488Y-15226D01*
X13463Y-15232D01*
X13361Y-15232D01*
X13679Y-15160D02*
X13730Y-15160D01*
X13756Y-15167D01*
X13781Y-15180D01*
X13794Y-15206D01*
X13794Y-15252D01*
X13781Y-15278D01*
X13756Y-15291D01*
X13730Y-15298D01*
X13679Y-15298D01*
X13654Y-15291D01*
X13628Y-15278D01*
X13616Y-15252D01*
X13616Y-15206D01*
X13628Y-15180D01*
X13654Y-15167D01*
X13679Y-15160D01*
X13871Y-15160D02*
X14023Y-15160D01*
X13947Y-15298D02*
X13947Y-15160D01*
X14317Y-15246D02*
X14521Y-15246D01*
X14419Y-15298D02*
X14419Y-15193D01*
X14776Y-15160D02*
X14648Y-15160D01*
X14635Y-15226D01*
X14648Y-15219D01*
X14674Y-15213D01*
X14737Y-15213D01*
X14763Y-15219D01*
X14776Y-15226D01*
X14788Y-15239D01*
X14788Y-15272D01*
X14776Y-15285D01*
X14763Y-15291D01*
X14737Y-15298D01*
X14674Y-15298D01*
X14648Y-15291D01*
X14635Y-15285D01*
X14865Y-15160D02*
X14954Y-15298D01*
X15043Y-15160D01*
X15337Y-15298D02*
X15337Y-15160D01*
X15439Y-15160D01*
X15464Y-15167D01*
X15477Y-15173D01*
X15490Y-15187D01*
X15490Y-15206D01*
X15477Y-15219D01*
X15464Y-15226D01*
X15439Y-15232D01*
X15337Y-15232D01*
X15579Y-15160D02*
X15643Y-15298D01*
X15694Y-15200D01*
X15745Y-15298D01*
X15808Y-15160D01*
X15910Y-15298D02*
X15910Y-15160D01*
X16000Y-15259D01*
X16089Y-15160D01*
X16089Y-15298D01*
X16560Y-15167D02*
X16535Y-15160D01*
X16497Y-15160D01*
X16458Y-15167D01*
X16433Y-15180D01*
X16420Y-15193D01*
X16407Y-15219D01*
X16407Y-15239D01*
X16420Y-15265D01*
X16433Y-15278D01*
X16458Y-15291D01*
X16497Y-15298D01*
X16522Y-15298D01*
X16560Y-15291D01*
X16573Y-15285D01*
X16573Y-15239D01*
X16522Y-15239D01*
X16688Y-15298D02*
X16688Y-15160D01*
X16841Y-15298D01*
X16841Y-15160D01*
X16968Y-15298D02*
X16968Y-15160D01*
X17032Y-15160D01*
X17070Y-15167D01*
X17096Y-15180D01*
X17109Y-15193D01*
X17121Y-15219D01*
X17121Y-15239D01*
X17109Y-15265D01*
X17096Y-15278D01*
X17070Y-15291D01*
X17032Y-15298D01*
X16968Y-15298D01*
X17580Y-15298D02*
X17427Y-15298D01*
X17504Y-15298D02*
X17504Y-15160D01*
X17478Y-15180D01*
X17453Y-15193D01*
X17427Y-15200D01*
X17682Y-15173D02*
X17695Y-15167D01*
X17721Y-15160D01*
X17784Y-15160D01*
X17810Y-15167D01*
X17823Y-15173D01*
X17835Y-15187D01*
X17835Y-15200D01*
X17823Y-15219D01*
X17670Y-15298D01*
X17835Y-15298D01*
X17912Y-15160D02*
X18001Y-15298D01*
X18090Y-15160D01*
G54D11*
X18405Y-16437D02*
X10925Y-16437D01*
X23523Y-10629D02*
X23523Y-13582D01*
X23129Y-10236D02*
X19192Y-10236D01*
X23129Y-13976D02*
X19192Y-13976D01*
X23129Y-13976D02*
G75*
G03X23523Y-13582I0J393D01*
G74*
G01*
X23523Y-10629D02*
G75*
G03X23129Y-10236I-393J0D01*
G74*
G01*
X10925Y-7775D02*
X18405Y-7775D01*
X10531Y-16043D02*
X10531Y-8169D01*
X10531Y-16043D02*
G75*
G03X10925Y-16437I393J0D01*
G74*
G01*
X10925Y-7775D02*
G75*
G03X10531Y-8169I0J-393D01*
G74*
G01*
G54D13*
X21571Y-13789D02*
X21458Y-13789D01*
X21514Y-13789D02*
X21514Y-13592D01*
X21496Y-13621D01*
X21477Y-13639D01*
X21458Y-13649D01*
X21646Y-13611D02*
X21655Y-13602D01*
X21674Y-13592D01*
X21721Y-13592D01*
X21739Y-13602D01*
X21749Y-13611D01*
X21758Y-13630D01*
X21758Y-13649D01*
X21749Y-13677D01*
X21636Y-13789D01*
X21758Y-13789D01*
X21814Y-13592D02*
X21880Y-13789D01*
X21946Y-13592D01*
G54D11*
X18799Y-9842D02*
X18799Y-8169D01*
X18799Y-16043D02*
X18799Y-14370D01*
X18799Y-8169D02*
G75*
G03X18405Y-7775I-393J0D01*
G74*
G01*
X18799Y-9842D02*
G75*
G03X19192Y-10236I393J0D01*
G74*
G01*
X18405Y-16437D02*
G75*
G03X18799Y-16043I0J393D01*
G74*
G01*
X19192Y-13976D02*
G75*
G03X18799Y-14370I0J-393D01*
G74*
G01*
G54D13*
X21542Y-10374D02*
X21524Y-10364D01*
X21496Y-10364D01*
X21467Y-10374D01*
X21449Y-10392D01*
X21439Y-10411D01*
X21430Y-10449D01*
X21430Y-10477D01*
X21439Y-10514D01*
X21449Y-10533D01*
X21467Y-10552D01*
X21496Y-10561D01*
X21514Y-10561D01*
X21542Y-10552D01*
X21552Y-10542D01*
X21552Y-10477D01*
X21514Y-10477D01*
X21636Y-10561D02*
X21636Y-10364D01*
X21749Y-10561D01*
X21749Y-10364D01*
X21842Y-10561D02*
X21842Y-10364D01*
X21889Y-10364D01*
X21917Y-10374D01*
X21936Y-10392D01*
X21946Y-10411D01*
X21955Y-10449D01*
X21955Y-10477D01*
X21946Y-10514D01*
X21936Y-10533D01*
X21917Y-10552D01*
X21889Y-10561D01*
X21842Y-10561D01*
X10708Y-12723D02*
X10708Y-12447D01*
X10866Y-12723D01*
X10866Y-12447D01*
X10997Y-12723D02*
X10997Y-12447D01*
X11062Y-12447D01*
X11102Y-12460D01*
X11128Y-12486D01*
X11141Y-12513D01*
X11154Y-12565D01*
X11154Y-12604D01*
X11141Y-12657D01*
X11128Y-12683D01*
X11102Y-12709D01*
X11062Y-12723D01*
X10997Y-12723D01*
G54D12*
X12551Y-13927D02*
X12526Y-13920D01*
X12487Y-13920D01*
X12449Y-13927D01*
X12424Y-13940D01*
X12411Y-13953D01*
X12398Y-13979D01*
X12398Y-13999D01*
X12411Y-14025D01*
X12424Y-14038D01*
X12449Y-14051D01*
X12487Y-14058D01*
X12513Y-14058D01*
X12551Y-14051D01*
X12564Y-14045D01*
X12564Y-13999D01*
X12513Y-13999D01*
X12679Y-14058D02*
X12679Y-13920D01*
X12832Y-14058D01*
X12832Y-13920D01*
X12959Y-14058D02*
X12959Y-13920D01*
X13023Y-13920D01*
X13061Y-13927D01*
X13086Y-13940D01*
X13099Y-13953D01*
X13112Y-13979D01*
X13112Y-13999D01*
X13099Y-14025D01*
X13086Y-14038D01*
X13061Y-14051D01*
X13023Y-14058D01*
X12959Y-14058D01*
X13584Y-14058D02*
X13494Y-13992D01*
X13431Y-14058D02*
X13431Y-13920D01*
X13533Y-13920D01*
X13558Y-13927D01*
X13571Y-13933D01*
X13584Y-13946D01*
X13584Y-13966D01*
X13571Y-13979D01*
X13558Y-13986D01*
X13533Y-13992D01*
X13431Y-13992D01*
X13686Y-14051D02*
X13724Y-14058D01*
X13788Y-14058D01*
X13813Y-14051D01*
X13826Y-14045D01*
X13839Y-14032D01*
X13839Y-14019D01*
X13826Y-14005D01*
X13813Y-13999D01*
X13788Y-13992D01*
X13737Y-13986D01*
X13711Y-13979D01*
X13698Y-13973D01*
X13686Y-13959D01*
X13686Y-13946D01*
X13698Y-13933D01*
X13711Y-13927D01*
X13737Y-13920D01*
X13800Y-13920D01*
X13839Y-13927D01*
X13915Y-13920D02*
X14068Y-13920D01*
X13992Y-14058D02*
X13992Y-13920D01*
X14361Y-14058D02*
X14361Y-13920D01*
X14451Y-14019D01*
X14540Y-13920D01*
X14540Y-14058D01*
X14718Y-13920D02*
X14769Y-13920D01*
X14795Y-13927D01*
X14820Y-13940D01*
X14833Y-13966D01*
X14833Y-14012D01*
X14820Y-14038D01*
X14795Y-14051D01*
X14769Y-14058D01*
X14718Y-14058D01*
X14693Y-14051D01*
X14667Y-14038D01*
X14655Y-14012D01*
X14655Y-13966D01*
X14667Y-13940D01*
X14693Y-13927D01*
X14718Y-13920D01*
X14935Y-14051D02*
X14973Y-14058D01*
X15037Y-14058D01*
X15062Y-14051D01*
X15075Y-14045D01*
X15088Y-14032D01*
X15088Y-14019D01*
X15075Y-14005D01*
X15062Y-13999D01*
X15037Y-13992D01*
X14986Y-13986D01*
X14961Y-13979D01*
X14948Y-13973D01*
X14935Y-13959D01*
X14935Y-13946D01*
X14948Y-13933D01*
X14961Y-13927D01*
X14986Y-13920D01*
X15050Y-13920D01*
X15088Y-13927D01*
X15394Y-14051D02*
X15432Y-14058D01*
X15496Y-14058D01*
X15521Y-14051D01*
X15534Y-14045D01*
X15547Y-14032D01*
X15547Y-14019D01*
X15534Y-14005D01*
X15521Y-13999D01*
X15496Y-13992D01*
X15445Y-13986D01*
X15419Y-13979D01*
X15407Y-13973D01*
X15394Y-13959D01*
X15394Y-13946D01*
X15407Y-13933D01*
X15419Y-13927D01*
X15445Y-13920D01*
X15509Y-13920D01*
X15547Y-13927D01*
X15815Y-14045D02*
X15802Y-14051D01*
X15764Y-14058D01*
X15738Y-14058D01*
X15700Y-14051D01*
X15674Y-14038D01*
X15662Y-14025D01*
X15649Y-13999D01*
X15649Y-13979D01*
X15662Y-13953D01*
X15674Y-13940D01*
X15700Y-13927D01*
X15738Y-13920D01*
X15764Y-13920D01*
X15802Y-13927D01*
X15815Y-13933D01*
X15929Y-14058D02*
X15929Y-13920D01*
X16082Y-14058D02*
X15968Y-13979D01*
X16082Y-13920D02*
X15929Y-13999D01*
X16401Y-14005D02*
X16605Y-14005D01*
X16503Y-14058D02*
X16503Y-13953D01*
X16860Y-13920D02*
X16733Y-13920D01*
X16720Y-13986D01*
X16733Y-13979D01*
X16758Y-13973D01*
X16822Y-13973D01*
X16847Y-13979D01*
X16860Y-13986D01*
X16873Y-13999D01*
X16873Y-14032D01*
X16860Y-14045D01*
X16847Y-14051D01*
X16822Y-14058D01*
X16758Y-14058D01*
X16733Y-14051D01*
X16720Y-14045D01*
X16949Y-13920D02*
X17038Y-14058D01*
X17128Y-13920D01*
X17421Y-14058D02*
X17421Y-13920D01*
X17510Y-14019D01*
X17599Y-13920D01*
X17599Y-14058D01*
X17727Y-14058D02*
X17727Y-13920D01*
X17842Y-14051D02*
X17880Y-14058D01*
X17944Y-14058D01*
X17969Y-14051D01*
X17982Y-14045D01*
X17995Y-14032D01*
X17995Y-14019D01*
X17982Y-14005D01*
X17969Y-13999D01*
X17944Y-13992D01*
X17893Y-13986D01*
X17867Y-13979D01*
X17854Y-13973D01*
X17842Y-13959D01*
X17842Y-13946D01*
X17854Y-13933D01*
X17867Y-13927D01*
X17893Y-13920D01*
X17956Y-13920D01*
X17995Y-13927D01*
G54D14*
X10951Y-13707D02*
X10951Y-13431D01*
X11108Y-13707D02*
X10990Y-13549D01*
X11108Y-13431D02*
X10951Y-13589D01*
X10958Y-14612D02*
X11089Y-14612D01*
X10931Y-14691D02*
X11023Y-14416D01*
X11115Y-14691D01*
G54D15*
X20129Y-11960D02*
X20129Y-12550D01*
X20129Y-11988D02*
X20185Y-11960D01*
X20298Y-11960D01*
X20354Y-11988D01*
X20382Y-12016D01*
X20410Y-12072D01*
X20410Y-12241D01*
X20382Y-12297D01*
X20354Y-12325D01*
X20298Y-12353D01*
X20185Y-12353D01*
X20129Y-12325D01*
X20663Y-12297D02*
X20691Y-12325D01*
X20663Y-12353D01*
X20635Y-12325D01*
X20663Y-12297D01*
X20663Y-12353D01*
X21197Y-11960D02*
X21197Y-12353D01*
X20944Y-11960D02*
X20944Y-12269D01*
X20973Y-12325D01*
X21029Y-12353D01*
X21113Y-12353D01*
X21169Y-12325D01*
X21197Y-12297D01*
X21479Y-12297D02*
X21507Y-12325D01*
X21479Y-12353D01*
X21451Y-12325D01*
X21479Y-12297D01*
X21479Y-12353D01*
X21844Y-12353D02*
X21788Y-12325D01*
X21760Y-12269D01*
X21760Y-11763D01*
X22069Y-12297D02*
X22097Y-12325D01*
X22069Y-12353D01*
X22041Y-12325D01*
X22069Y-12297D01*
X22069Y-12353D01*
X22322Y-12325D02*
X22379Y-12353D01*
X22491Y-12353D01*
X22547Y-12325D01*
X22575Y-12269D01*
X22575Y-12241D01*
X22547Y-12185D01*
X22491Y-12156D01*
X22407Y-12156D01*
X22350Y-12128D01*
X22322Y-12072D01*
X22322Y-12044D01*
X22350Y-11988D01*
X22407Y-11960D01*
X22491Y-11960D01*
X22547Y-11988D01*
X22829Y-12297D02*
X22857Y-12325D01*
X22829Y-12353D01*
X22800Y-12325D01*
X22829Y-12297D01*
X22829Y-12353D01*
X23335Y-12325D02*
X23278Y-12353D01*
X23166Y-12353D01*
X23110Y-12325D01*
X23082Y-12269D01*
X23082Y-12044D01*
X23110Y-11988D01*
X23166Y-11960D01*
X23278Y-11960D01*
X23335Y-11988D01*
X23363Y-12044D01*
X23363Y-12100D01*
X23082Y-12156D01*
G54D14*
X14783Y-9665D02*
X14783Y-7893D01*
X14783Y-7893D02*
X15767Y-7893D01*
X15767Y-7893D02*
X15767Y-9665D01*
X15767Y-9665D02*
X14783Y-9665D01*
X15767Y-9665D02*
X15767Y-7893D01*
X15767Y-7893D02*
X16751Y-7893D01*
X16751Y-7893D02*
X16751Y-9665D01*
X16751Y-9665D02*
X15767Y-9665D01*
X16830Y-11751D02*
X18996Y-11751D01*
X18996Y-11751D02*
X18996Y-13129D01*
X18996Y-13129D02*
X16830Y-13129D01*
X16830Y-13129D02*
X16830Y-11751D01*
X18602Y-8877D02*
X16830Y-8877D01*
X16830Y-8877D02*
X16830Y-7893D01*
X16830Y-7893D02*
X18602Y-7893D01*
X18602Y-7893D02*
X18602Y-8877D01*
X11462Y-14082D02*
X11962Y-14082D01*
X11212Y-14082D02*
X11212Y-15082D01*
X11212Y-15082D02*
X12212Y-15082D01*
X12212Y-15082D02*
X12212Y-14082D01*
X12212Y-14082D02*
X11962Y-14082D01*
X11962Y-14082D02*
X12212Y-13832D01*
X12212Y-13832D02*
X12212Y-13332D01*
X12212Y-13332D02*
X11962Y-13082D01*
X11962Y-13082D02*
X12212Y-12832D01*
X12212Y-12832D02*
X12212Y-12332D01*
X12212Y-12332D02*
X11962Y-12082D01*
X11962Y-12082D02*
X11462Y-12082D01*
X11462Y-12082D02*
X11212Y-12332D01*
X11212Y-12332D02*
X11212Y-12832D01*
X11212Y-12832D02*
X11462Y-13082D01*
X11462Y-13082D02*
X11212Y-13332D01*
X11212Y-13332D02*
X11212Y-13832D01*
X11212Y-13832D02*
X11462Y-14082D01*
X11462Y-14082D02*
X11212Y-14082D01*
X17196Y-14356D02*
X17196Y-14856D01*
X17196Y-14356D02*
X17196Y-14106D01*
X16446Y-15106D02*
X16946Y-15106D01*
X16946Y-15106D02*
X17196Y-14856D01*
X17196Y-14856D02*
X17196Y-15106D01*
X18196Y-14106D02*
X17196Y-14106D01*
X18196Y-15106D02*
X18196Y-14106D01*
X17196Y-15106D02*
X18196Y-15106D01*
X12196Y-14856D02*
X12196Y-14356D01*
X16446Y-15106D02*
X16196Y-14856D01*
X16196Y-14856D02*
X15946Y-15106D01*
X15946Y-15106D02*
X15446Y-15106D01*
X15446Y-15106D02*
X15196Y-14856D01*
X15196Y-14856D02*
X14946Y-15106D01*
X14946Y-15106D02*
X14446Y-15106D01*
X14446Y-15106D02*
X14196Y-14856D01*
X14196Y-14856D02*
X13946Y-15106D01*
X13946Y-15106D02*
X13446Y-15106D01*
X13446Y-15106D02*
X13196Y-14856D01*
X13196Y-14856D02*
X12946Y-15106D01*
X12946Y-15106D02*
X12446Y-15106D01*
X12446Y-15106D02*
X12196Y-14856D01*
X12196Y-14356D02*
X12446Y-14106D01*
X12446Y-14106D02*
X12946Y-14106D01*
X12946Y-14106D02*
X13196Y-14356D01*
X13196Y-14356D02*
X13446Y-14106D01*
X13446Y-14106D02*
X13946Y-14106D01*
X13946Y-14106D02*
X14196Y-14356D01*
X14196Y-14356D02*
X14446Y-14106D01*
X14446Y-14106D02*
X14946Y-14106D01*
X14946Y-14106D02*
X15196Y-14356D01*
X15196Y-14356D02*
X15446Y-14106D01*
X15446Y-14106D02*
X15946Y-14106D01*
X15946Y-14106D02*
X16196Y-14356D01*
X16196Y-14356D02*
X16446Y-14106D01*
X16446Y-14106D02*
X16946Y-14106D01*
X16946Y-14106D02*
X17196Y-14356D01*
X14181Y-16096D02*
X14181Y-15596D01*
X14181Y-16346D02*
X15181Y-16346D01*
X15181Y-16346D02*
X15181Y-15346D01*
X15181Y-15346D02*
X14181Y-15346D01*
X14181Y-15346D02*
X14181Y-15596D01*
X14181Y-15596D02*
X13931Y-15346D01*
X13931Y-15346D02*
X13431Y-15346D01*
X13431Y-15346D02*
X13181Y-15596D01*
X13181Y-15596D02*
X12931Y-15346D01*
X12931Y-15346D02*
X12431Y-15346D01*
X12431Y-15346D02*
X12181Y-15596D01*
X12181Y-15596D02*
X12181Y-16096D01*
X12181Y-16096D02*
X12431Y-16346D01*
X12431Y-16346D02*
X12931Y-16346D01*
X12931Y-16346D02*
X13181Y-16096D01*
X13181Y-16096D02*
X13431Y-16346D01*
X13431Y-16346D02*
X13931Y-16346D01*
X13931Y-16346D02*
X14181Y-16096D01*
X14181Y-16096D02*
X14181Y-16346D01*
X16232Y-15596D02*
X16232Y-16096D01*
X16232Y-15346D02*
X15232Y-15346D01*
X15232Y-15346D02*
X15232Y-16346D01*
X15232Y-16346D02*
X16232Y-16346D01*
X16232Y-16346D02*
X16232Y-16096D01*
X16232Y-16096D02*
X16482Y-16346D01*
X16482Y-16346D02*
X16982Y-16346D01*
X16982Y-16346D02*
X17232Y-16096D01*
X17232Y-16096D02*
X17482Y-16346D01*
X17482Y-16346D02*
X17982Y-16346D01*
X17982Y-16346D02*
X18232Y-16096D01*
X18232Y-16096D02*
X18232Y-15596D01*
X18232Y-15596D02*
X17982Y-15346D01*
X17982Y-15346D02*
X17482Y-15346D01*
X17482Y-15346D02*
X17232Y-15596D01*
X17232Y-15596D02*
X16982Y-15346D01*
X16982Y-15346D02*
X16482Y-15346D01*
X16482Y-15346D02*
X16232Y-15596D01*
X16232Y-15596D02*
X16232Y-15346D01*
X13385Y-8681D02*
X13385Y-8956D01*
X13779Y-8287D02*
G75*
G03X13779Y-8287I-393J0D01*
G74*
G01*
X11614Y-8661D02*
X11338Y-8661D01*
X12401Y-8661D02*
G75*
G03X12401Y-8661I-393J0D01*
G74*
G01*
G54D16*
X18631Y-9379D02*
X18576Y-9354D01*
X17516Y-9244D02*
X17546Y-9234D01*
X17001Y-9714D02*
X16971Y-9769D01*
X16971Y-9769D02*
X16946Y-9829D01*
X16976Y-10894D02*
X16931Y-10799D01*
X17441Y-11344D02*
X17496Y-11379D01*
X17496Y-11379D02*
X17541Y-11404D01*
X18631Y-11259D02*
X18536Y-11309D01*
X17006Y-9714D02*
X17106Y-9564D01*
X17106Y-9564D02*
X17231Y-9414D01*
X17231Y-9414D02*
X17381Y-9314D01*
X17381Y-9314D02*
X17506Y-9239D01*
X17431Y-11339D02*
X17356Y-11289D01*
X17356Y-11289D02*
X17256Y-11214D01*
X17256Y-11214D02*
X17106Y-11064D01*
X17106Y-11064D02*
X16981Y-10889D01*
X18631Y-10314D02*
X18631Y-9364D01*
X18631Y-10314D02*
X18631Y-11264D01*
X12607Y-9596D02*
X12552Y-9571D01*
X11492Y-9461D02*
X11522Y-9451D01*
X10977Y-9931D02*
X10947Y-9986D01*
X10947Y-9986D02*
X10922Y-10046D01*
X10952Y-11111D02*
X10907Y-11016D01*
X11417Y-11561D02*
X11472Y-11596D01*
X11472Y-11596D02*
X11517Y-11621D01*
X12607Y-11476D02*
X12512Y-11526D01*
X10982Y-9931D02*
X11082Y-9781D01*
X11082Y-9781D02*
X11207Y-9631D01*
X11207Y-9631D02*
X11357Y-9531D01*
X11357Y-9531D02*
X11482Y-9456D01*
X11407Y-11556D02*
X11332Y-11506D01*
X11332Y-11506D02*
X11232Y-11431D01*
X11232Y-11431D02*
X11082Y-11281D01*
X11082Y-11281D02*
X10957Y-11106D01*
X12607Y-10531D02*
X12607Y-9581D01*
X12607Y-10531D02*
X12607Y-11481D01*
G54D14*
X17834Y-13582D02*
X17834Y-13779D01*
X17834Y-13779D02*
X17874Y-13779D01*
X17874Y-13779D02*
X17874Y-13385D01*
X17874Y-13385D02*
X17834Y-13385D01*
X17834Y-13385D02*
X17834Y-13582D01*
X18031Y-13464D02*
X18110Y-13464D01*
X18110Y-13700D02*
X18031Y-13700D01*
X17992Y-13661D02*
X18110Y-13661D01*
X18110Y-13503D02*
X17992Y-13503D01*
X17952Y-13543D02*
X18110Y-13543D01*
X18110Y-13622D02*
X17952Y-13622D01*
X17874Y-13582D02*
X18110Y-13582D01*
X17874Y-13582D02*
X18110Y-13385D01*
X18110Y-13385D02*
X18110Y-13779D01*
X18110Y-13779D02*
X17874Y-13582D01*
X17814Y-13582D02*
G75*
G03X17814Y-13582I-393J0D01*
G74*
G01*
X14291Y-8858D02*
X14488Y-8858D01*
X14488Y-8858D02*
X14488Y-8818D01*
X14488Y-8818D02*
X14094Y-8818D01*
X14094Y-8818D02*
X14094Y-8858D01*
X14094Y-8858D02*
X14291Y-8858D01*
X14173Y-8661D02*
X14173Y-8582D01*
X14409Y-8582D02*
X14409Y-8661D01*
X14370Y-8700D02*
X14370Y-8582D01*
X14212Y-8582D02*
X14212Y-8700D01*
X14251Y-8740D02*
X14251Y-8582D01*
X14330Y-8582D02*
X14330Y-8740D01*
X14291Y-8818D02*
X14291Y-8582D01*
X14291Y-8818D02*
X14094Y-8582D01*
X14094Y-8582D02*
X14488Y-8582D01*
X14488Y-8582D02*
X14291Y-8818D01*
X14685Y-9271D02*
G75*
G03X14685Y-9271I-393J0D01*
G74*
G01*
G54D11*
X15263Y-9850D02*
X15263Y-10350D01*
X15263Y-10350D02*
X14263Y-10350D01*
X14263Y-10350D02*
X14263Y-9850D01*
X15763Y-9850D02*
X15763Y-13850D01*
X15763Y-13850D02*
X13763Y-13850D01*
X13763Y-13850D02*
X13763Y-9850D01*
X13763Y-9850D02*
X15763Y-9850D01*
G54D13*
X15030Y-8891D02*
X15040Y-8900D01*
X15049Y-8928D01*
X15049Y-8947D01*
X15040Y-8975D01*
X15021Y-8994D01*
X15002Y-9003D01*
X14965Y-9012D01*
X14937Y-9012D01*
X14899Y-9003D01*
X14880Y-8994D01*
X14862Y-8975D01*
X14852Y-8947D01*
X14852Y-8928D01*
X14862Y-8900D01*
X14871Y-8891D01*
X15049Y-8703D02*
X15049Y-8816D01*
X15049Y-8759D02*
X14852Y-8759D01*
X14880Y-8778D01*
X14899Y-8797D01*
X14909Y-8816D01*
X16015Y-8891D02*
X16024Y-8900D01*
X16033Y-8928D01*
X16033Y-8947D01*
X16024Y-8975D01*
X16005Y-8994D01*
X15987Y-9003D01*
X15949Y-9012D01*
X15921Y-9012D01*
X15883Y-9003D01*
X15865Y-8994D01*
X15846Y-8975D01*
X15837Y-8947D01*
X15837Y-8928D01*
X15846Y-8900D01*
X15855Y-8891D01*
X15855Y-8816D02*
X15846Y-8806D01*
X15837Y-8787D01*
X15837Y-8741D01*
X15846Y-8722D01*
X15855Y-8712D01*
X15874Y-8703D01*
X15893Y-8703D01*
X15921Y-8712D01*
X16033Y-8825D01*
X16033Y-8703D01*
X17801Y-11999D02*
X17792Y-12008D01*
X17764Y-12018D01*
X17745Y-12018D01*
X17717Y-12008D01*
X17698Y-11990D01*
X17689Y-11971D01*
X17679Y-11933D01*
X17679Y-11905D01*
X17689Y-11868D01*
X17698Y-11849D01*
X17717Y-11830D01*
X17745Y-11821D01*
X17764Y-11821D01*
X17792Y-11830D01*
X17801Y-11840D01*
X17867Y-11821D02*
X17989Y-11821D01*
X17923Y-11896D01*
X17951Y-11896D01*
X17970Y-11905D01*
X17979Y-11915D01*
X17989Y-11933D01*
X17989Y-11980D01*
X17979Y-11999D01*
X17970Y-12008D01*
X17951Y-12018D01*
X17895Y-12018D01*
X17876Y-12008D01*
X17867Y-11999D01*
X17683Y-8141D02*
X17674Y-8150D01*
X17646Y-8159D01*
X17627Y-8159D01*
X17599Y-8150D01*
X17580Y-8131D01*
X17571Y-8113D01*
X17561Y-8075D01*
X17561Y-8047D01*
X17571Y-8009D01*
X17580Y-7991D01*
X17599Y-7972D01*
X17627Y-7963D01*
X17646Y-7963D01*
X17674Y-7972D01*
X17683Y-7981D01*
X17852Y-8028D02*
X17852Y-8159D01*
X17805Y-7953D02*
X17758Y-8094D01*
X17880Y-8094D01*
X10799Y-12175D02*
X10799Y-11978D01*
X10874Y-11978D01*
X10893Y-11988D01*
X10902Y-11997D01*
X10912Y-12016D01*
X10912Y-12044D01*
X10902Y-12063D01*
X10893Y-12072D01*
X10874Y-12081D01*
X10799Y-12081D01*
X10987Y-11997D02*
X10996Y-11988D01*
X11015Y-11978D01*
X11062Y-11978D01*
X11080Y-11988D01*
X11090Y-11997D01*
X11099Y-12016D01*
X11099Y-12035D01*
X11090Y-12063D01*
X10977Y-12175D01*
X11099Y-12175D01*
X12373Y-13671D02*
X12279Y-13671D01*
X12279Y-13474D01*
X12439Y-13568D02*
X12504Y-13568D01*
X12532Y-13671D02*
X12439Y-13671D01*
X12439Y-13474D01*
X12532Y-13474D01*
X12617Y-13671D02*
X12617Y-13474D01*
X12664Y-13474D01*
X12692Y-13484D01*
X12710Y-13502D01*
X12720Y-13521D01*
X12729Y-13559D01*
X12729Y-13587D01*
X12720Y-13624D01*
X12710Y-13643D01*
X12692Y-13662D01*
X12664Y-13671D01*
X12617Y-13671D01*
X18358Y-14695D02*
X18358Y-14498D01*
X18433Y-14498D01*
X18452Y-14507D01*
X18461Y-14517D01*
X18471Y-14535D01*
X18471Y-14564D01*
X18461Y-14582D01*
X18452Y-14592D01*
X18433Y-14601D01*
X18358Y-14601D01*
X18536Y-14498D02*
X18658Y-14498D01*
X18592Y-14573D01*
X18621Y-14573D01*
X18639Y-14582D01*
X18649Y-14592D01*
X18658Y-14610D01*
X18658Y-14657D01*
X18649Y-14676D01*
X18639Y-14685D01*
X18621Y-14695D01*
X18564Y-14695D01*
X18546Y-14685D01*
X18536Y-14676D01*
X11961Y-15443D02*
X11961Y-15246D01*
X12035Y-15246D01*
X12054Y-15255D01*
X12064Y-15265D01*
X12073Y-15284D01*
X12073Y-15312D01*
X12064Y-15330D01*
X12054Y-15340D01*
X12035Y-15349D01*
X11961Y-15349D01*
X12242Y-15312D02*
X12242Y-15443D01*
X12195Y-15237D02*
X12148Y-15377D01*
X12270Y-15377D01*
X10695Y-16230D02*
X10695Y-16033D01*
X10770Y-16033D01*
X10789Y-16043D01*
X10798Y-16052D01*
X10808Y-16071D01*
X10808Y-16099D01*
X10798Y-16118D01*
X10789Y-16127D01*
X10770Y-16137D01*
X10695Y-16137D01*
X10929Y-16033D02*
X10967Y-16033D01*
X10986Y-16043D01*
X11004Y-16062D01*
X11014Y-16099D01*
X11014Y-16165D01*
X11004Y-16202D01*
X10986Y-16221D01*
X10967Y-16230D01*
X10929Y-16230D01*
X10911Y-16221D01*
X10892Y-16202D01*
X10883Y-16165D01*
X10883Y-16099D01*
X10892Y-16062D01*
X10911Y-16043D01*
X10929Y-16033D01*
X11070Y-16033D02*
X11182Y-16033D01*
X11126Y-16230D02*
X11126Y-16033D01*
X18358Y-15541D02*
X18358Y-15344D01*
X18433Y-15344D01*
X18452Y-15354D01*
X18461Y-15363D01*
X18471Y-15382D01*
X18471Y-15410D01*
X18461Y-15429D01*
X18452Y-15438D01*
X18433Y-15448D01*
X18358Y-15448D01*
X18649Y-15344D02*
X18555Y-15344D01*
X18546Y-15438D01*
X18555Y-15429D01*
X18574Y-15419D01*
X18621Y-15419D01*
X18639Y-15429D01*
X18649Y-15438D01*
X18658Y-15457D01*
X18658Y-15504D01*
X18649Y-15523D01*
X18639Y-15532D01*
X18621Y-15541D01*
X18574Y-15541D01*
X18555Y-15532D01*
X18546Y-15523D01*
X18592Y-16221D02*
X18396Y-16221D01*
X18396Y-16146D01*
X18405Y-16127D01*
X18414Y-16118D01*
X18433Y-16108D01*
X18461Y-16108D01*
X18480Y-16118D01*
X18489Y-16127D01*
X18499Y-16146D01*
X18499Y-16221D01*
X18396Y-16043D02*
X18592Y-15996D01*
X18452Y-15958D01*
X18592Y-15921D01*
X18396Y-15874D01*
X18592Y-15799D02*
X18396Y-15799D01*
X18536Y-15733D01*
X18396Y-15668D01*
X18592Y-15668D01*
X10686Y-15387D02*
X10779Y-15387D01*
X10667Y-15443D02*
X10733Y-15246D01*
X10798Y-15443D01*
X10864Y-15443D02*
X10864Y-15246D01*
X10911Y-15246D01*
X10939Y-15255D01*
X10958Y-15274D01*
X10967Y-15293D01*
X10976Y-15330D01*
X10976Y-15359D01*
X10967Y-15396D01*
X10958Y-15415D01*
X10939Y-15434D01*
X10911Y-15443D01*
X10864Y-15443D01*
X11173Y-15424D02*
X11164Y-15434D01*
X11136Y-15443D01*
X11117Y-15443D01*
X11089Y-15434D01*
X11070Y-15415D01*
X11061Y-15396D01*
X11051Y-15359D01*
X11051Y-15330D01*
X11061Y-15293D01*
X11070Y-15274D01*
X11089Y-15255D01*
X11117Y-15246D01*
X11136Y-15246D01*
X11164Y-15255D01*
X11173Y-15265D01*
X11239Y-15246D02*
X11361Y-15246D01*
X11295Y-15321D01*
X11323Y-15321D01*
X11342Y-15330D01*
X11351Y-15340D01*
X11361Y-15359D01*
X11361Y-15405D01*
X11351Y-15424D01*
X11342Y-15434D01*
X11323Y-15443D01*
X11267Y-15443D01*
X11248Y-15434D01*
X11239Y-15424D01*
X12982Y-8792D02*
X12889Y-8858D01*
X12982Y-8905D02*
X12785Y-8905D01*
X12785Y-8830D01*
X12795Y-8811D01*
X12804Y-8802D01*
X12823Y-8792D01*
X12851Y-8792D01*
X12870Y-8802D01*
X12879Y-8811D01*
X12889Y-8830D01*
X12889Y-8905D01*
X12982Y-8605D02*
X12982Y-8717D01*
X12982Y-8661D02*
X12785Y-8661D01*
X12814Y-8680D01*
X12832Y-8698D01*
X12842Y-8717D01*
X11482Y-8258D02*
X11417Y-8164D01*
X11370Y-8258D02*
X11370Y-8061D01*
X11445Y-8061D01*
X11464Y-8070D01*
X11473Y-8080D01*
X11482Y-8098D01*
X11482Y-8127D01*
X11473Y-8145D01*
X11464Y-8155D01*
X11445Y-8164D01*
X11370Y-8164D01*
X11548Y-8061D02*
X11670Y-8061D01*
X11604Y-8136D01*
X11632Y-8136D01*
X11651Y-8145D01*
X11661Y-8155D01*
X11670Y-8173D01*
X11670Y-8220D01*
X11661Y-8239D01*
X11651Y-8248D01*
X11632Y-8258D01*
X11576Y-8258D01*
X11557Y-8248D01*
X11548Y-8239D01*
X16897Y-9026D02*
X16897Y-9185D01*
X16906Y-9204D01*
X16916Y-9213D01*
X16934Y-9222D01*
X16972Y-9222D01*
X16991Y-9213D01*
X17000Y-9204D01*
X17009Y-9185D01*
X17009Y-9026D01*
X17094Y-9044D02*
X17103Y-9035D01*
X17122Y-9026D01*
X17169Y-9026D01*
X17187Y-9035D01*
X17197Y-9044D01*
X17206Y-9063D01*
X17206Y-9082D01*
X17197Y-9110D01*
X17084Y-9222D01*
X17206Y-9222D01*
X10906Y-9556D02*
X10887Y-9547D01*
X10868Y-9528D01*
X10840Y-9500D01*
X10822Y-9491D01*
X10803Y-9491D01*
X10812Y-9537D02*
X10793Y-9528D01*
X10775Y-9509D01*
X10765Y-9472D01*
X10765Y-9406D01*
X10775Y-9369D01*
X10793Y-9350D01*
X10812Y-9341D01*
X10850Y-9341D01*
X10868Y-9350D01*
X10887Y-9369D01*
X10897Y-9406D01*
X10897Y-9472D01*
X10887Y-9509D01*
X10868Y-9528D01*
X10850Y-9537D01*
X10812Y-9537D01*
X11084Y-9537D02*
X10972Y-9537D01*
X11028Y-9537D02*
X11028Y-9341D01*
X11009Y-9369D01*
X10990Y-9387D01*
X10972Y-9397D01*
X18850Y-13671D02*
X18850Y-13474D01*
X18897Y-13474D01*
X18925Y-13484D01*
X18944Y-13502D01*
X18953Y-13521D01*
X18963Y-13559D01*
X18963Y-13587D01*
X18953Y-13624D01*
X18944Y-13643D01*
X18925Y-13662D01*
X18897Y-13671D01*
X18850Y-13671D01*
X19028Y-13474D02*
X19150Y-13474D01*
X19085Y-13549D01*
X19113Y-13549D01*
X19131Y-13559D01*
X19141Y-13568D01*
X19150Y-13587D01*
X19150Y-13634D01*
X19141Y-13652D01*
X19131Y-13662D01*
X19113Y-13671D01*
X19056Y-13671D01*
X19038Y-13662D01*
X19028Y-13652D01*
X13868Y-8905D02*
X13671Y-8905D01*
X13671Y-8858D01*
X13681Y-8830D01*
X13699Y-8811D01*
X13718Y-8802D01*
X13756Y-8792D01*
X13784Y-8792D01*
X13821Y-8802D01*
X13840Y-8811D01*
X13859Y-8830D01*
X13868Y-8858D01*
X13868Y-8905D01*
X13868Y-8605D02*
X13868Y-8717D01*
X13868Y-8661D02*
X13671Y-8661D01*
X13699Y-8680D01*
X13718Y-8698D01*
X13727Y-8717D01*
X14613Y-9931D02*
X14613Y-10090D01*
X14623Y-10109D01*
X14632Y-10119D01*
X14651Y-10128D01*
X14688Y-10128D01*
X14707Y-10119D01*
X14716Y-10109D01*
X14726Y-10090D01*
X14726Y-9931D01*
X14923Y-10128D02*
X14810Y-10128D01*
X14866Y-10128D02*
X14866Y-9931D01*
X14848Y-9959D01*
X14829Y-9978D01*
X14810Y-9987D01*
%LPC*%
G54D17*
X21758Y-13106D03*
X21758Y-11106D03*
G54D18*
X15275Y-9271D03*
G54D19*
X15275Y-8287D03*
G54D18*
X16259Y-9271D03*
G54D19*
X16259Y-8287D03*
G54D18*
X17421Y-12440D03*
G54D19*
X18405Y-12440D03*
G54D18*
X18208Y-8385D03*
G54D19*
X17224Y-8385D03*
G54D20*
X11712Y-14582D03*
X11712Y-13582D03*
X11712Y-12582D03*
X17696Y-14606D03*
X16696Y-14606D03*
X15696Y-14606D03*
X14696Y-14606D03*
X13696Y-14606D03*
G54D21*
X12696Y-14606D03*
G54D20*
X14681Y-15846D03*
X13681Y-15846D03*
G54D21*
X12681Y-15846D03*
G54D20*
X15732Y-15846D03*
G54D21*
X16732Y-15846D03*
G54D20*
X17732Y-15846D03*
X11675Y-15850D03*
G54D18*
X13385Y-9271D03*
X13385Y-8287D03*
X11023Y-8661D03*
X12007Y-8661D03*
G54D19*
X17031Y-10314D03*
G54D18*
X18031Y-11314D03*
X18031Y-9314D03*
G54D19*
X18031Y-10314D03*
G54D18*
X11007Y-10531D03*
X12007Y-11531D03*
G54D19*
X12007Y-9531D03*
G54D18*
X12007Y-10531D03*
X18405Y-13582D03*
X17421Y-13582D03*
X14291Y-8287D03*
X14291Y-9271D03*
G54D22*
X13263Y-10350D03*
G54D23*
X13263Y-11350D03*
X13263Y-12350D03*
X13263Y-13350D03*
X16263Y-13350D03*
X16263Y-12350D03*
X16263Y-11350D03*
X16263Y-10350D03*
M02*
