%FSLAX34Y34*%
G04 Gerber Fmt 3.4, Leading zero omitted, Abs format*
G04 (created by PCBNEW (2014-05-21 BZR 4875)-product) date Thursday 18 September 2014 04:54:14 PM IST*
%MOIN*%
G01*
G70*
G90*
G04 APERTURE LIST*
%ADD10C,0.005906*%
%ADD11C,0.003937*%
%ADD12C,0.010000*%
%ADD13C,0.005000*%
%ADD14C,0.007874*%
%ADD15C,0.006299*%
%ADD16R,0.350000X0.090000*%
%ADD17C,0.079055*%
%ADD18R,0.079055X0.079055*%
%ADD19C,0.086929*%
%ADD20R,0.086929X0.086929*%
%ADD21R,0.075118X0.075118*%
%ADD22C,0.075118*%
G04 APERTURE END LIST*
G54D10*
G54D11*
X12609Y-15334D02*
X12591Y-15344D01*
X12564Y-15344D01*
X12537Y-15334D01*
X12519Y-15315D01*
X12510Y-15297D01*
X12501Y-15259D01*
X12501Y-15231D01*
X12510Y-15194D01*
X12519Y-15175D01*
X12537Y-15156D01*
X12564Y-15147D01*
X12582Y-15147D01*
X12609Y-15156D01*
X12618Y-15165D01*
X12618Y-15231D01*
X12582Y-15231D01*
X12699Y-15147D02*
X12699Y-15344D01*
X12807Y-15147D01*
X12807Y-15344D01*
X12897Y-15147D02*
X12897Y-15344D01*
X12942Y-15344D01*
X12969Y-15334D01*
X12987Y-15315D01*
X12996Y-15297D01*
X13005Y-15259D01*
X13005Y-15231D01*
X12996Y-15194D01*
X12987Y-15175D01*
X12969Y-15156D01*
X12942Y-15147D01*
X12897Y-15147D01*
X13626Y-15147D02*
X13563Y-15240D01*
X13518Y-15147D02*
X13518Y-15344D01*
X13590Y-15344D01*
X13608Y-15334D01*
X13617Y-15325D01*
X13626Y-15306D01*
X13626Y-15278D01*
X13617Y-15259D01*
X13608Y-15250D01*
X13590Y-15240D01*
X13518Y-15240D01*
X13698Y-15156D02*
X13725Y-15147D01*
X13770Y-15147D01*
X13788Y-15156D01*
X13797Y-15165D01*
X13806Y-15184D01*
X13806Y-15203D01*
X13797Y-15222D01*
X13788Y-15231D01*
X13770Y-15240D01*
X13734Y-15250D01*
X13716Y-15259D01*
X13707Y-15269D01*
X13698Y-15287D01*
X13698Y-15306D01*
X13707Y-15325D01*
X13716Y-15334D01*
X13734Y-15344D01*
X13779Y-15344D01*
X13806Y-15334D01*
X13860Y-15344D02*
X13968Y-15344D01*
X13914Y-15147D02*
X13914Y-15344D01*
X14463Y-15147D02*
X14463Y-15344D01*
X14526Y-15203D01*
X14589Y-15344D01*
X14589Y-15147D01*
X14715Y-15344D02*
X14751Y-15344D01*
X14769Y-15334D01*
X14787Y-15315D01*
X14796Y-15278D01*
X14796Y-15212D01*
X14787Y-15175D01*
X14769Y-15156D01*
X14751Y-15147D01*
X14715Y-15147D01*
X14697Y-15156D01*
X14679Y-15175D01*
X14670Y-15212D01*
X14670Y-15278D01*
X14679Y-15315D01*
X14697Y-15334D01*
X14715Y-15344D01*
X14868Y-15156D02*
X14895Y-15147D01*
X14940Y-15147D01*
X14958Y-15156D01*
X14967Y-15165D01*
X14976Y-15184D01*
X14976Y-15203D01*
X14967Y-15222D01*
X14958Y-15231D01*
X14940Y-15240D01*
X14904Y-15250D01*
X14886Y-15259D01*
X14877Y-15269D01*
X14868Y-15287D01*
X14868Y-15306D01*
X14877Y-15325D01*
X14886Y-15334D01*
X14904Y-15344D01*
X14949Y-15344D01*
X14976Y-15334D01*
X15480Y-15156D02*
X15507Y-15147D01*
X15552Y-15147D01*
X15570Y-15156D01*
X15579Y-15165D01*
X15588Y-15184D01*
X15588Y-15203D01*
X15579Y-15222D01*
X15570Y-15231D01*
X15552Y-15240D01*
X15516Y-15250D01*
X15498Y-15259D01*
X15489Y-15269D01*
X15480Y-15287D01*
X15480Y-15306D01*
X15489Y-15325D01*
X15498Y-15334D01*
X15516Y-15344D01*
X15561Y-15344D01*
X15588Y-15334D01*
X15777Y-15165D02*
X15768Y-15156D01*
X15741Y-15147D01*
X15723Y-15147D01*
X15696Y-15156D01*
X15678Y-15175D01*
X15669Y-15194D01*
X15660Y-15231D01*
X15660Y-15259D01*
X15669Y-15297D01*
X15678Y-15315D01*
X15696Y-15334D01*
X15723Y-15344D01*
X15741Y-15344D01*
X15768Y-15334D01*
X15777Y-15325D01*
X15858Y-15147D02*
X15858Y-15344D01*
X15966Y-15147D02*
X15885Y-15259D01*
X15966Y-15344D02*
X15858Y-15231D01*
X16479Y-15222D02*
X16623Y-15222D01*
X16551Y-15147D02*
X16551Y-15297D01*
X16803Y-15344D02*
X16713Y-15344D01*
X16704Y-15250D01*
X16713Y-15259D01*
X16731Y-15269D01*
X16776Y-15269D01*
X16794Y-15259D01*
X16803Y-15250D01*
X16812Y-15231D01*
X16812Y-15184D01*
X16803Y-15165D01*
X16794Y-15156D01*
X16776Y-15147D01*
X16731Y-15147D01*
X16713Y-15156D01*
X16704Y-15165D01*
X16866Y-15344D02*
X16929Y-15147D01*
X16992Y-15344D01*
X17487Y-15147D02*
X17487Y-15344D01*
X17550Y-15203D01*
X17613Y-15344D01*
X17613Y-15147D01*
X17703Y-15147D02*
X17703Y-15344D01*
X17784Y-15156D02*
X17811Y-15147D01*
X17856Y-15147D01*
X17874Y-15156D01*
X17883Y-15165D01*
X17892Y-15184D01*
X17892Y-15203D01*
X17883Y-15222D01*
X17874Y-15231D01*
X17856Y-15240D01*
X17820Y-15250D01*
X17802Y-15259D01*
X17793Y-15269D01*
X17784Y-15287D01*
X17784Y-15306D01*
X17793Y-15325D01*
X17802Y-15334D01*
X17820Y-15344D01*
X17865Y-15344D01*
X17892Y-15334D01*
G54D12*
X18405Y-16437D02*
X10925Y-16437D01*
X23523Y-10629D02*
X23523Y-13582D01*
X23129Y-10236D02*
X19192Y-10236D01*
X23129Y-13976D02*
X19192Y-13976D01*
X23129Y-13976D02*
G75*
G03X23523Y-13582I0J393D01*
G74*
G01*
X23523Y-10629D02*
G75*
G03X23129Y-10236I-393J0D01*
G74*
G01*
X10925Y-7775D02*
X18405Y-7775D01*
X10531Y-16043D02*
X10531Y-8169D01*
X10531Y-16043D02*
G75*
G03X10925Y-16437I393J0D01*
G74*
G01*
X10925Y-7775D02*
G75*
G03X10531Y-8169I0J-393D01*
G74*
G01*
G54D13*
X10977Y-14632D02*
X10977Y-14501D01*
X10898Y-14658D02*
X11174Y-14566D01*
X10898Y-14475D01*
X10898Y-13654D02*
X11174Y-13654D01*
X10898Y-13497D02*
X11056Y-13615D01*
X11174Y-13497D02*
X11017Y-13654D01*
G54D11*
X10898Y-12814D02*
X11174Y-12814D01*
X10898Y-12657D01*
X11174Y-12657D01*
X10898Y-12526D02*
X11174Y-12526D01*
X11174Y-12460D01*
X11161Y-12421D01*
X11135Y-12395D01*
X11108Y-12381D01*
X11056Y-12368D01*
X11017Y-12368D01*
X10964Y-12381D01*
X10938Y-12395D01*
X10912Y-12421D01*
X10898Y-12460D01*
X10898Y-12526D01*
X21814Y-13789D02*
X21927Y-13789D01*
X21871Y-13789D02*
X21871Y-13592D01*
X21889Y-13621D01*
X21908Y-13639D01*
X21927Y-13649D01*
X21739Y-13611D02*
X21730Y-13602D01*
X21711Y-13592D01*
X21664Y-13592D01*
X21646Y-13602D01*
X21636Y-13611D01*
X21627Y-13630D01*
X21627Y-13649D01*
X21636Y-13677D01*
X21749Y-13789D01*
X21627Y-13789D01*
X21571Y-13592D02*
X21505Y-13789D01*
X21439Y-13592D01*
X21842Y-10374D02*
X21861Y-10364D01*
X21889Y-10364D01*
X21917Y-10374D01*
X21936Y-10392D01*
X21946Y-10411D01*
X21955Y-10449D01*
X21955Y-10477D01*
X21946Y-10514D01*
X21936Y-10533D01*
X21917Y-10552D01*
X21889Y-10561D01*
X21871Y-10561D01*
X21842Y-10552D01*
X21833Y-10542D01*
X21833Y-10477D01*
X21871Y-10477D01*
X21749Y-10561D02*
X21749Y-10364D01*
X21636Y-10561D01*
X21636Y-10364D01*
X21542Y-10561D02*
X21542Y-10364D01*
X21496Y-10364D01*
X21467Y-10374D01*
X21449Y-10392D01*
X21439Y-10411D01*
X21430Y-10449D01*
X21430Y-10477D01*
X21439Y-10514D01*
X21449Y-10533D01*
X21467Y-10552D01*
X21496Y-10561D01*
X21542Y-10561D01*
G54D12*
X18799Y-9842D02*
X18799Y-8169D01*
X18799Y-16043D02*
X18799Y-14370D01*
X18799Y-8169D02*
G75*
G03X18405Y-7775I-393J0D01*
G74*
G01*
X18799Y-9842D02*
G75*
G03X19192Y-10236I393J0D01*
G74*
G01*
X18405Y-16437D02*
G75*
G03X18799Y-16043I0J393D01*
G74*
G01*
X19192Y-13976D02*
G75*
G03X18799Y-14370I0J-393D01*
G74*
G01*
G54D14*
X23335Y-11960D02*
X23335Y-12550D01*
X23335Y-11988D02*
X23278Y-11960D01*
X23166Y-11960D01*
X23110Y-11988D01*
X23082Y-12016D01*
X23053Y-12072D01*
X23053Y-12241D01*
X23082Y-12297D01*
X23110Y-12325D01*
X23166Y-12353D01*
X23278Y-12353D01*
X23335Y-12325D01*
X22800Y-12297D02*
X22772Y-12325D01*
X22800Y-12353D01*
X22829Y-12325D01*
X22800Y-12297D01*
X22800Y-12353D01*
X22266Y-11960D02*
X22266Y-12353D01*
X22519Y-11960D02*
X22519Y-12269D01*
X22491Y-12325D01*
X22435Y-12353D01*
X22350Y-12353D01*
X22294Y-12325D01*
X22266Y-12297D01*
X21985Y-12297D02*
X21957Y-12325D01*
X21985Y-12353D01*
X22013Y-12325D01*
X21985Y-12297D01*
X21985Y-12353D01*
X21619Y-12353D02*
X21676Y-12325D01*
X21704Y-12269D01*
X21704Y-11763D01*
X21394Y-12297D02*
X21366Y-12325D01*
X21394Y-12353D01*
X21422Y-12325D01*
X21394Y-12297D01*
X21394Y-12353D01*
X21141Y-12325D02*
X21085Y-12353D01*
X20973Y-12353D01*
X20916Y-12325D01*
X20888Y-12269D01*
X20888Y-12241D01*
X20916Y-12185D01*
X20973Y-12156D01*
X21057Y-12156D01*
X21113Y-12128D01*
X21141Y-12072D01*
X21141Y-12044D01*
X21113Y-11988D01*
X21057Y-11960D01*
X20973Y-11960D01*
X20916Y-11988D01*
X20635Y-12297D02*
X20607Y-12325D01*
X20635Y-12353D01*
X20663Y-12325D01*
X20635Y-12297D01*
X20635Y-12353D01*
X20129Y-12325D02*
X20185Y-12353D01*
X20298Y-12353D01*
X20354Y-12325D01*
X20382Y-12269D01*
X20382Y-12044D01*
X20354Y-11988D01*
X20298Y-11960D01*
X20185Y-11960D01*
X20129Y-11988D01*
X20101Y-12044D01*
X20101Y-12100D01*
X20382Y-12156D01*
G54D15*
X15167Y-11840D02*
X15167Y-11624D01*
X13858Y-9911D02*
G75*
G02X13877Y-9872I29J9D01*
G74*
G01*
X13828Y-9911D02*
G75*
G02X13877Y-9822I68J19D01*
G74*
G01*
X13779Y-9891D02*
G75*
G02X13887Y-9783I108J0D01*
G74*
G01*
X13720Y-9931D02*
G75*
G02X13868Y-9724I177J29D01*
G74*
G01*
X13671Y-9911D02*
G75*
G02X13877Y-9665I226J19D01*
G74*
G01*
X13612Y-9921D02*
G75*
G02X13868Y-9606I285J29D01*
G74*
G01*
X13877Y-13976D02*
G75*
G02X13848Y-13927I9J39D01*
G74*
G01*
X13877Y-14015D02*
G75*
G02X13809Y-13907I19J88D01*
G74*
G01*
X13868Y-14064D02*
G75*
G02X13769Y-13907I29J127D01*
G74*
G01*
X13868Y-14124D02*
G75*
G02X13720Y-13917I29J177D01*
G74*
G01*
X13877Y-14173D02*
G75*
G02X13661Y-13917I19J236D01*
G74*
G01*
X13877Y-14222D02*
G75*
G02X13612Y-13917I19J285D01*
G74*
G01*
X13848Y-9911D02*
X13848Y-13887D01*
X13848Y-13887D02*
X13789Y-13887D01*
X13789Y-13887D02*
X13789Y-9940D01*
X13789Y-9940D02*
X13730Y-9940D01*
X13730Y-9940D02*
X13730Y-13887D01*
X13730Y-13887D02*
X13671Y-13887D01*
X13671Y-13887D02*
X13671Y-9940D01*
X13671Y-9940D02*
X13612Y-9940D01*
X13612Y-9940D02*
X13612Y-13887D01*
X13582Y-9911D02*
X13877Y-9911D01*
X13582Y-13917D02*
X13877Y-13917D01*
X17037Y-14025D02*
X17007Y-14055D01*
X15206Y-14242D02*
X15206Y-11702D01*
X15206Y-11702D02*
X15265Y-11811D01*
X15265Y-11811D02*
X15265Y-14242D01*
X15265Y-14242D02*
X15324Y-14242D01*
X15324Y-14242D02*
X15324Y-11850D01*
X15324Y-11850D02*
X15383Y-11899D01*
X15383Y-11899D02*
X15383Y-14242D01*
X15383Y-14242D02*
X15442Y-14242D01*
X15442Y-14242D02*
X15442Y-11909D01*
X15442Y-11909D02*
X15501Y-11929D01*
X15501Y-11929D02*
X15501Y-14242D01*
X15501Y-14242D02*
X15561Y-14242D01*
X15561Y-14242D02*
X15561Y-11929D01*
X15561Y-11929D02*
X15620Y-11929D01*
X15620Y-11929D02*
X15620Y-14242D01*
X15620Y-14242D02*
X15679Y-14242D01*
X15679Y-14242D02*
X15679Y-11929D01*
X15679Y-11929D02*
X15738Y-11929D01*
X15738Y-11929D02*
X15738Y-14242D01*
X15738Y-14242D02*
X15797Y-14242D01*
X15797Y-14242D02*
X15797Y-11929D01*
X15797Y-11929D02*
X15856Y-11929D01*
X15856Y-11929D02*
X15856Y-14242D01*
X15856Y-14242D02*
X15915Y-14242D01*
X15915Y-14242D02*
X15915Y-11929D01*
X15915Y-11929D02*
X15974Y-11929D01*
X15974Y-11929D02*
X15974Y-14242D01*
X15974Y-14242D02*
X16033Y-14242D01*
X16033Y-14242D02*
X16033Y-11929D01*
X16033Y-11929D02*
X16092Y-11929D01*
X16092Y-11929D02*
X16092Y-14242D01*
X16092Y-14242D02*
X16151Y-14242D01*
X16151Y-14242D02*
X16151Y-11929D01*
X16151Y-11929D02*
X16210Y-11929D01*
X16210Y-11929D02*
X16210Y-14242D01*
X16210Y-14242D02*
X16269Y-14242D01*
X16269Y-14242D02*
X16269Y-11929D01*
X16269Y-11929D02*
X16328Y-11929D01*
X16328Y-11929D02*
X16328Y-14242D01*
X16328Y-14242D02*
X16387Y-14242D01*
X16387Y-14242D02*
X16387Y-11929D01*
X16387Y-11929D02*
X16446Y-11929D01*
X16446Y-11929D02*
X16446Y-14242D01*
X16446Y-14242D02*
X16505Y-14242D01*
X16505Y-14242D02*
X16505Y-11929D01*
X16505Y-11929D02*
X16564Y-11929D01*
X16564Y-11929D02*
X16564Y-14242D01*
X16564Y-14242D02*
X16624Y-14242D01*
X16624Y-14242D02*
X16624Y-11929D01*
X16624Y-11929D02*
X16683Y-11929D01*
X16683Y-11929D02*
X16683Y-14242D01*
X16683Y-14242D02*
X16742Y-14242D01*
X16742Y-14242D02*
X16742Y-11929D01*
X16742Y-11929D02*
X16801Y-11929D01*
X16801Y-11929D02*
X16801Y-14242D01*
X16801Y-14242D02*
X16860Y-14212D01*
X16860Y-14212D02*
X16860Y-11968D01*
X16860Y-11968D02*
X16860Y-11958D01*
X16860Y-11958D02*
X16919Y-11988D01*
X16919Y-11988D02*
X16919Y-14183D01*
X16919Y-14183D02*
X16978Y-14124D01*
X16978Y-14124D02*
X16978Y-12037D01*
X16978Y-12037D02*
X17037Y-12155D01*
X17037Y-12155D02*
X17037Y-14025D01*
X14911Y-14242D02*
X14911Y-9586D01*
X14911Y-9586D02*
X14970Y-9616D01*
X14970Y-9616D02*
X14970Y-14242D01*
X14970Y-14242D02*
X15029Y-14242D01*
X15029Y-14242D02*
X15029Y-9635D01*
X15029Y-9635D02*
X15088Y-9685D01*
X15088Y-9685D02*
X15088Y-14242D01*
X15088Y-14242D02*
X15147Y-14242D01*
X15147Y-14242D02*
X15147Y-9773D01*
X15147Y-9773D02*
X15118Y-9714D01*
X16938Y-9783D02*
X16860Y-9704D01*
X16722Y-9685D02*
X16938Y-9685D01*
X16938Y-9685D02*
X16938Y-9852D01*
X15295Y-9665D02*
X15206Y-9596D01*
X16860Y-9606D02*
X15226Y-9606D01*
X15285Y-9655D02*
X16919Y-9655D01*
X17047Y-11850D02*
X17047Y-11899D01*
X16968Y-11820D02*
X16968Y-9694D01*
X17017Y-11889D02*
X17017Y-9763D01*
X14616Y-10019D02*
X14527Y-9940D01*
X14576Y-10019D02*
X14074Y-9655D01*
X14074Y-9655D02*
X14212Y-9655D01*
X14665Y-10000D02*
X14163Y-9665D01*
X14665Y-9616D02*
X14064Y-9616D01*
X14064Y-10029D02*
X14665Y-10029D01*
X14340Y-11072D02*
X14064Y-10935D01*
X14340Y-11122D02*
X14074Y-10984D01*
X14606Y-11122D02*
X14606Y-11092D01*
X14566Y-10964D02*
X14458Y-10964D01*
X14557Y-11003D02*
X14448Y-11003D01*
X14409Y-10974D02*
X14409Y-11062D01*
X14586Y-10974D02*
X14586Y-11062D01*
X14635Y-11250D02*
X14330Y-11250D01*
X14360Y-11250D02*
X14360Y-11013D01*
X14635Y-11250D02*
X14635Y-11003D01*
X14665Y-11279D02*
X14064Y-11279D01*
X14616Y-11771D02*
X14616Y-11653D01*
X14606Y-11692D02*
X14064Y-11692D01*
X14635Y-11889D02*
X14635Y-11496D01*
X14635Y-12372D02*
X14114Y-12372D01*
X14094Y-12401D02*
X14596Y-12401D01*
X14094Y-11968D02*
X14094Y-12431D01*
X14360Y-12076D02*
X14360Y-12431D01*
X14635Y-12076D02*
X14635Y-12431D01*
X14350Y-12883D02*
X14291Y-12883D01*
X14547Y-12677D02*
X14498Y-12677D01*
X14665Y-13110D02*
X14399Y-12893D01*
X14399Y-12893D02*
X14645Y-12677D01*
X14645Y-12677D02*
X14566Y-12677D01*
X14566Y-12677D02*
X14330Y-12883D01*
X14330Y-12883D02*
X14566Y-13090D01*
X14064Y-12637D02*
X14665Y-12637D01*
G54D11*
X14045Y-12588D02*
X14045Y-12687D01*
G54D15*
X14064Y-13120D02*
X14665Y-13120D01*
X14094Y-13503D02*
G75*
G02X14251Y-13346I157J0D01*
G74*
G01*
X14251Y-13641D02*
G75*
G02X14114Y-13503I0J137D01*
G74*
G01*
X14074Y-13503D02*
G75*
G02X14251Y-13326I177J0D01*
G74*
G01*
X14251Y-13681D02*
G75*
G02X14074Y-13503I0J177D01*
G74*
G01*
X14153Y-13326D02*
X14665Y-13326D01*
X14665Y-13661D02*
X14153Y-13661D01*
X14094Y-14202D02*
X14133Y-14163D01*
X14094Y-14202D02*
X14094Y-13838D01*
X14665Y-14202D02*
X14064Y-14202D01*
X14074Y-10364D02*
X14212Y-10393D01*
X14212Y-10393D02*
X14124Y-10482D01*
X14124Y-10482D02*
X14074Y-10364D01*
X14291Y-10580D02*
X14084Y-10374D01*
X14448Y-10580D02*
X14645Y-10383D01*
X14370Y-10580D02*
X14183Y-10580D01*
X14370Y-10580D02*
X14557Y-10580D01*
X14370Y-10816D02*
X14370Y-10580D01*
G54D11*
X14685Y-10501D02*
G75*
G03X14685Y-10501I-324J0D01*
G74*
G01*
X14685Y-11112D02*
X14685Y-11328D01*
X14311Y-11112D02*
G75*
G02X14498Y-10925I187J0D01*
G74*
G01*
X14498Y-10925D02*
G75*
G02X14685Y-11112I0J-187D01*
G74*
G01*
X14586Y-11112D02*
X14586Y-11230D01*
X14409Y-11112D02*
X14409Y-11230D01*
X14409Y-11112D02*
G75*
G02X14498Y-11023I88J0D01*
G74*
G01*
X14498Y-11023D02*
G75*
G02X14586Y-11112I0J-88D01*
G74*
G01*
X14409Y-11230D02*
X14586Y-11230D01*
X14045Y-11328D02*
X14045Y-11230D01*
X14045Y-11230D02*
X14311Y-11230D01*
X14311Y-11230D02*
X14311Y-11131D01*
X14311Y-11131D02*
X14045Y-11003D01*
X14045Y-11003D02*
X14045Y-10895D01*
X14045Y-10895D02*
X14311Y-11023D01*
X14045Y-11328D02*
X14685Y-11328D01*
X14685Y-9960D02*
X14242Y-9665D01*
X14242Y-9665D02*
X14311Y-9665D01*
X14685Y-9566D02*
X14045Y-9566D01*
X14045Y-9566D02*
X14045Y-9685D01*
X14045Y-9685D02*
X14488Y-9980D01*
X14488Y-9980D02*
X14419Y-9980D01*
X14685Y-9566D02*
X14685Y-9665D01*
X14685Y-9665D02*
X14311Y-9665D01*
X14045Y-10078D02*
X14685Y-10078D01*
X14685Y-10078D02*
X14685Y-9960D01*
X14045Y-10078D02*
X14045Y-9980D01*
X14045Y-9980D02*
X14419Y-9980D01*
X14685Y-11909D02*
X14685Y-11476D01*
X14685Y-11476D02*
X14586Y-11476D01*
X14586Y-11476D02*
X14586Y-11643D01*
X14586Y-11643D02*
X14045Y-11643D01*
X14045Y-11643D02*
X14045Y-11742D01*
X14045Y-11742D02*
X14586Y-11742D01*
X14586Y-11742D02*
X14586Y-11909D01*
X14586Y-11909D02*
X14685Y-11909D01*
X14685Y-12450D02*
X14685Y-12057D01*
X14685Y-12057D02*
X14586Y-12057D01*
X14586Y-12057D02*
X14586Y-12352D01*
X14586Y-12352D02*
X14409Y-12352D01*
X14409Y-12352D02*
X14409Y-12057D01*
X14409Y-12057D02*
X14311Y-12057D01*
X14311Y-12057D02*
X14311Y-12352D01*
X14311Y-12352D02*
X14143Y-12352D01*
X14143Y-12352D02*
X14143Y-11948D01*
X14143Y-11948D02*
X14045Y-11948D01*
X14045Y-11948D02*
X14045Y-12450D01*
X14045Y-12450D02*
X14685Y-12450D01*
X14685Y-12588D02*
X14685Y-12696D01*
X14685Y-12696D02*
X14448Y-12883D01*
X14448Y-12883D02*
X14685Y-13061D01*
X14685Y-13061D02*
X14685Y-13169D01*
X14507Y-12696D02*
X14251Y-12883D01*
X14251Y-12883D02*
X14507Y-13070D01*
X14045Y-13169D02*
X14685Y-13169D01*
X14507Y-12687D02*
X14045Y-12687D01*
X14045Y-12588D02*
X14685Y-12588D01*
X14045Y-13169D02*
X14045Y-13070D01*
X14045Y-13070D02*
X14507Y-13070D01*
X14685Y-13277D02*
X14261Y-13277D01*
X14261Y-13375D02*
X14685Y-13375D01*
X14685Y-13710D02*
X14261Y-13710D01*
X14261Y-13612D02*
X14685Y-13612D01*
X14261Y-13710D02*
G75*
G02X14045Y-13494I0J216D01*
G74*
G01*
X14045Y-13494D02*
G75*
G02X14261Y-13277I216J0D01*
G74*
G01*
X14143Y-13494D02*
G75*
G02X14261Y-13375I118J0D01*
G74*
G01*
X14261Y-13612D02*
G75*
G02X14143Y-13494I0J118D01*
G74*
G01*
X14685Y-13375D02*
X14685Y-13277D01*
X14685Y-13710D02*
X14685Y-13612D01*
X14685Y-14153D02*
X14685Y-14251D01*
X14685Y-14153D02*
X14143Y-14153D01*
X14143Y-14153D02*
X14143Y-13818D01*
X14143Y-13818D02*
X14045Y-13818D01*
X14045Y-13818D02*
X14045Y-14251D01*
X14045Y-14251D02*
X14685Y-14251D01*
X15140Y-9578D02*
G75*
G02X15265Y-9704I-277J-401D01*
G74*
G01*
X16941Y-11833D02*
G75*
G02X17066Y-11978I-327J-410D01*
G74*
G01*
X16732Y-9566D02*
X15127Y-9566D01*
X16732Y-9704D02*
X15265Y-9704D01*
X16929Y-9901D02*
X16929Y-11830D01*
X17066Y-9901D02*
X17066Y-11978D01*
X16732Y-9704D02*
G75*
G02X16929Y-9901I0J-196D01*
G74*
G01*
X16732Y-9566D02*
G75*
G02X17066Y-9901I0J-334D01*
G74*
G01*
X15196Y-9901D02*
X15196Y-11574D01*
X14862Y-9566D02*
G75*
G02X15196Y-9901I0J-334D01*
G74*
G01*
X15531Y-11909D02*
G75*
G02X15196Y-11574I0J334D01*
G74*
G01*
X16732Y-11909D02*
X15521Y-11909D01*
X16732Y-11909D02*
G75*
G02X17066Y-12244I0J-334D01*
G74*
G01*
X17066Y-13927D02*
X17066Y-12244D01*
X17066Y-13927D02*
G75*
G02X16732Y-14261I-334J0D01*
G74*
G01*
X14862Y-9566D02*
X14862Y-14261D01*
X14862Y-14261D02*
X16732Y-14261D01*
X13562Y-13927D02*
X13562Y-9901D01*
X13897Y-14261D02*
G75*
G02X13562Y-13927I0J334D01*
G74*
G01*
X13562Y-9901D02*
G75*
G02X13897Y-9566I334J0D01*
G74*
G01*
X13897Y-14261D02*
X13897Y-9566D01*
X21814Y-13789D02*
X21927Y-13789D01*
X21871Y-13789D02*
X21871Y-13592D01*
X21889Y-13621D01*
X21908Y-13639D01*
X21927Y-13649D01*
X21739Y-13611D02*
X21730Y-13602D01*
X21711Y-13592D01*
X21664Y-13592D01*
X21646Y-13602D01*
X21636Y-13611D01*
X21627Y-13630D01*
X21627Y-13649D01*
X21636Y-13677D01*
X21749Y-13789D01*
X21627Y-13789D01*
X21571Y-13592D02*
X21505Y-13789D01*
X21439Y-13592D01*
%LPC*%
G54D16*
X21758Y-13106D03*
X21758Y-11106D03*
G54D17*
X15275Y-9271D03*
G54D18*
X15275Y-8287D03*
G54D17*
X16259Y-9271D03*
G54D18*
X16259Y-8287D03*
G54D17*
X17421Y-12440D03*
G54D18*
X18405Y-12440D03*
G54D17*
X18208Y-8385D03*
G54D18*
X17224Y-8385D03*
G54D19*
X11712Y-14582D03*
X11712Y-13582D03*
X11712Y-12582D03*
X17696Y-14606D03*
X16696Y-14606D03*
X15696Y-14606D03*
X14696Y-14606D03*
X13696Y-14606D03*
G54D20*
X12696Y-14606D03*
G54D19*
X14681Y-15846D03*
X13681Y-15846D03*
G54D20*
X12681Y-15846D03*
G54D19*
X15732Y-15846D03*
G54D20*
X16732Y-15846D03*
G54D19*
X17732Y-15846D03*
X11675Y-15850D03*
G54D17*
X13385Y-9271D03*
X13385Y-8287D03*
X11023Y-8661D03*
X12007Y-8661D03*
G54D18*
X17031Y-10314D03*
G54D17*
X18031Y-11314D03*
X18031Y-9314D03*
G54D18*
X18031Y-10314D03*
G54D17*
X11007Y-10531D03*
X12007Y-11531D03*
G54D18*
X12007Y-9531D03*
G54D17*
X12007Y-10531D03*
G54D19*
X18405Y-13582D03*
X17421Y-13582D03*
G54D17*
X14291Y-8287D03*
X14291Y-9271D03*
G54D21*
X13263Y-10350D03*
G54D22*
X13263Y-11350D03*
X13263Y-12350D03*
X13263Y-13350D03*
X16263Y-13350D03*
X16263Y-12350D03*
X16263Y-11350D03*
X16263Y-10350D03*
M02*
