%FSLAX34Y34*%
G04 Gerber Fmt 3.4, Leading zero omitted, Abs format*
G04 (created by PCBNEW (2014-05-21 BZR 4875)-product) date Thursday 18 September 2014 04:54:14 PM IST*
%MOIN*%
G01*
G70*
G90*
G04 APERTURE LIST*
%ADD10C,0.005906*%
%ADD11C,0.010000*%
%ADD12R,0.330000X0.070000*%
%ADD13C,0.059055*%
%ADD14R,0.059055X0.059055*%
%ADD15C,0.066929*%
%ADD16R,0.066929X0.066929*%
%ADD17R,0.055118X0.055118*%
%ADD18C,0.055118*%
%ADD19C,0.035000*%
%ADD20C,0.030000*%
%ADD21C,0.015000*%
%ADD22C,0.008000*%
G04 APERTURE END LIST*
G54D10*
G54D11*
X18405Y-16437D02*
X10925Y-16437D01*
X23523Y-10629D02*
X23523Y-13582D01*
X23129Y-10236D02*
X19192Y-10236D01*
X23129Y-13976D02*
X19192Y-13976D01*
X23129Y-13976D02*
G75*
G03X23523Y-13582I0J393D01*
G74*
G01*
X23523Y-10629D02*
G75*
G03X23129Y-10236I-393J0D01*
G74*
G01*
X10925Y-7775D02*
X18405Y-7775D01*
X10531Y-16043D02*
X10531Y-8169D01*
X10531Y-16043D02*
G75*
G03X10925Y-16437I393J0D01*
G74*
G01*
X10925Y-7775D02*
G75*
G03X10531Y-8169I0J-393D01*
G74*
G01*
X18799Y-9842D02*
X18799Y-8169D01*
X18799Y-16043D02*
X18799Y-14370D01*
X18799Y-8169D02*
G75*
G03X18405Y-7775I-393J0D01*
G74*
G01*
X18799Y-9842D02*
G75*
G03X19192Y-10236I393J0D01*
G74*
G01*
X18405Y-16437D02*
G75*
G03X18799Y-16043I0J393D01*
G74*
G01*
X19192Y-13976D02*
G75*
G03X18799Y-14370I0J-393D01*
G74*
G01*
G54D12*
X21758Y-13106D03*
X21758Y-11106D03*
G54D13*
X15275Y-9271D03*
G54D14*
X15275Y-8287D03*
G54D13*
X16259Y-9271D03*
G54D14*
X16259Y-8287D03*
G54D13*
X17421Y-12440D03*
G54D14*
X18405Y-12440D03*
G54D13*
X18208Y-8385D03*
G54D14*
X17224Y-8385D03*
G54D15*
X11712Y-14582D03*
X11712Y-13582D03*
X11712Y-12582D03*
X17696Y-14606D03*
X16696Y-14606D03*
X15696Y-14606D03*
X14696Y-14606D03*
X13696Y-14606D03*
G54D16*
X12696Y-14606D03*
G54D15*
X14681Y-15846D03*
X13681Y-15846D03*
G54D16*
X12681Y-15846D03*
G54D15*
X15732Y-15846D03*
G54D16*
X16732Y-15846D03*
G54D15*
X17732Y-15846D03*
X11675Y-15850D03*
G54D13*
X13385Y-9271D03*
X13385Y-8287D03*
X11023Y-8661D03*
X12007Y-8661D03*
G54D14*
X17031Y-10314D03*
G54D13*
X18031Y-11314D03*
X18031Y-9314D03*
G54D14*
X18031Y-10314D03*
G54D13*
X11007Y-10531D03*
X12007Y-11531D03*
G54D14*
X12007Y-9531D03*
G54D13*
X12007Y-10531D03*
G54D15*
X18405Y-13582D03*
X17421Y-13582D03*
G54D13*
X14291Y-8287D03*
X14291Y-9271D03*
G54D17*
X13263Y-10350D03*
G54D18*
X13263Y-11350D03*
X13263Y-12350D03*
X13263Y-13350D03*
X16263Y-13350D03*
X16263Y-12350D03*
X16263Y-11350D03*
X16263Y-10350D03*
G54D19*
X14793Y-13366D03*
X14448Y-12096D03*
X15255Y-12854D03*
G54D20*
X12559Y-12874D02*
X12559Y-13582D01*
X12559Y-13582D02*
X11712Y-14429D01*
X11712Y-14429D02*
X11712Y-14582D01*
X12559Y-12874D02*
X12559Y-12145D01*
X16830Y-11850D02*
X17421Y-12440D01*
G54D21*
X15807Y-11850D02*
X16830Y-11850D01*
G54D20*
X15610Y-11653D02*
X15807Y-11850D01*
X13887Y-11653D02*
X15610Y-11653D01*
X13690Y-11850D02*
X13887Y-11653D01*
G54D21*
X12854Y-11850D02*
X13690Y-11850D01*
G54D20*
X12559Y-12145D02*
X12854Y-11850D01*
X11712Y-14582D02*
X11716Y-14582D01*
G54D11*
X16496Y-13996D02*
X15088Y-13996D01*
X14793Y-13700D02*
X14793Y-13366D01*
X15088Y-13996D02*
X14793Y-13700D01*
X16696Y-14606D02*
X16696Y-14196D01*
X16696Y-14196D02*
X16496Y-13996D01*
X14681Y-15846D02*
X14681Y-15446D01*
X16047Y-15255D02*
X16696Y-14606D01*
X14872Y-15255D02*
X16047Y-15255D01*
X14681Y-15446D02*
X14872Y-15255D01*
X13263Y-12350D02*
X14194Y-12350D01*
X14194Y-12350D02*
X14448Y-12096D01*
G54D20*
X16582Y-12854D02*
X16771Y-12854D01*
X16771Y-12854D02*
X16909Y-12992D01*
X17854Y-12992D02*
X18405Y-12440D01*
X16909Y-12992D02*
X17854Y-12992D01*
G54D11*
X17913Y-15236D02*
X17342Y-15236D01*
X17342Y-15236D02*
X16732Y-15846D01*
X16732Y-15846D02*
X16732Y-15551D01*
X17913Y-12933D02*
X18405Y-12440D01*
X17913Y-13976D02*
X17913Y-12933D01*
X18425Y-14488D02*
X17913Y-13976D01*
X18425Y-14881D02*
X18425Y-14488D01*
X18070Y-15236D02*
X18425Y-14881D01*
X17913Y-15236D02*
X18070Y-15236D01*
X13543Y-8779D02*
X13799Y-8779D01*
G54D20*
X13799Y-8779D02*
X14291Y-8287D01*
X14291Y-8287D02*
X14291Y-8425D01*
X12759Y-8779D02*
X12007Y-9531D01*
G54D11*
X13543Y-8779D02*
X12759Y-8779D01*
G54D20*
X20358Y-11106D02*
X18814Y-11106D01*
X16259Y-8287D02*
X16515Y-8287D01*
X16515Y-8287D02*
X16614Y-8385D01*
X16614Y-8385D02*
X17224Y-8385D01*
X16732Y-15846D02*
X16250Y-16328D01*
X13163Y-16328D02*
X12681Y-15846D01*
G54D22*
X16250Y-16328D02*
X13163Y-16328D01*
G54D20*
X13263Y-13350D02*
X13598Y-13350D01*
X14094Y-12854D02*
X15255Y-12854D01*
X13598Y-13350D02*
X14094Y-12854D01*
G54D22*
X15255Y-12854D02*
X16582Y-12854D01*
G54D20*
X13263Y-13350D02*
X13263Y-14039D01*
X13263Y-14039D02*
X12696Y-14606D01*
X17224Y-8385D02*
X17224Y-9531D01*
X17224Y-9531D02*
X17031Y-9724D01*
X17031Y-10314D02*
X17031Y-9724D01*
X18814Y-11303D02*
X18814Y-11106D01*
X18814Y-11106D02*
X18814Y-10744D01*
X17031Y-10314D02*
X18385Y-10314D01*
X18814Y-10744D02*
X18385Y-10314D01*
X18814Y-11303D02*
X18814Y-12031D01*
X18814Y-12031D02*
X18405Y-12440D01*
X15275Y-8287D02*
X14291Y-8287D01*
X16259Y-8287D02*
X15275Y-8287D01*
G54D11*
X12952Y-15246D02*
X13513Y-15246D01*
X13681Y-15413D02*
X13681Y-15846D01*
X13513Y-15246D02*
X13681Y-15413D01*
X10925Y-12992D02*
X10925Y-14940D01*
X11230Y-15246D02*
X12952Y-15246D01*
X10925Y-14940D02*
X11230Y-15246D01*
X11712Y-12582D02*
X11334Y-12582D01*
X11334Y-12582D02*
X10925Y-12992D01*
X12007Y-10531D02*
X11007Y-10531D01*
G36*
X12743Y-15901D02*
X12736Y-15901D01*
X12736Y-15909D01*
X12626Y-15909D01*
X12626Y-15901D01*
X12618Y-15901D01*
X12618Y-15791D01*
X12626Y-15791D01*
X12626Y-15783D01*
X12736Y-15783D01*
X12736Y-15791D01*
X12743Y-15791D01*
X12743Y-15901D01*
X12743Y-15901D01*
G37*
X12743Y-15901D02*
X12736Y-15901D01*
X12736Y-15909D01*
X12626Y-15909D01*
X12626Y-15901D01*
X12618Y-15901D01*
X12618Y-15791D01*
X12626Y-15791D01*
X12626Y-15783D01*
X12736Y-15783D01*
X12736Y-15791D01*
X12743Y-15791D01*
X12743Y-15901D01*
G36*
X12759Y-14661D02*
X12751Y-14661D01*
X12751Y-14669D01*
X12641Y-14669D01*
X12641Y-14661D01*
X12633Y-14661D01*
X12633Y-14551D01*
X12641Y-14551D01*
X12641Y-14543D01*
X12751Y-14543D01*
X12751Y-14551D01*
X12759Y-14551D01*
X12759Y-14661D01*
X12759Y-14661D01*
G37*
X12759Y-14661D02*
X12751Y-14661D01*
X12751Y-14669D01*
X12641Y-14669D01*
X12641Y-14661D01*
X12633Y-14661D01*
X12633Y-14551D01*
X12641Y-14551D01*
X12641Y-14543D01*
X12751Y-14543D01*
X12751Y-14551D01*
X12759Y-14551D01*
X12759Y-14661D01*
G36*
X14374Y-8292D02*
X14296Y-8370D01*
X14291Y-8365D01*
X13956Y-8700D01*
X13980Y-8808D01*
X13982Y-8809D01*
X13838Y-8953D01*
X13695Y-8809D01*
X13622Y-8779D01*
X13694Y-8749D01*
X13832Y-8612D01*
X13878Y-8622D01*
X14213Y-8287D01*
X14207Y-8281D01*
X14285Y-8204D01*
X14291Y-8209D01*
X14296Y-8204D01*
X14374Y-8281D01*
X14369Y-8287D01*
X14374Y-8292D01*
X14374Y-8292D01*
G37*
X14374Y-8292D02*
X14296Y-8370D01*
X14291Y-8365D01*
X13956Y-8700D01*
X13980Y-8808D01*
X13982Y-8809D01*
X13838Y-8953D01*
X13695Y-8809D01*
X13622Y-8779D01*
X13694Y-8749D01*
X13832Y-8612D01*
X13878Y-8622D01*
X14213Y-8287D01*
X14207Y-8281D01*
X14285Y-8204D01*
X14291Y-8209D01*
X14296Y-8204D01*
X14374Y-8281D01*
X14369Y-8287D01*
X14374Y-8292D01*
G36*
X16097Y-12850D02*
X15966Y-12904D01*
X15818Y-13052D01*
X15738Y-13245D01*
X15738Y-13454D01*
X15817Y-13647D01*
X15866Y-13696D01*
X15212Y-13696D01*
X15138Y-13621D01*
X15153Y-13607D01*
X15218Y-13451D01*
X15218Y-13281D01*
X15153Y-13125D01*
X15034Y-13006D01*
X14878Y-12941D01*
X14709Y-12941D01*
X14552Y-13005D01*
X14433Y-13125D01*
X14368Y-13281D01*
X14368Y-13450D01*
X14432Y-13606D01*
X14493Y-13667D01*
X14493Y-13700D01*
X14516Y-13815D01*
X14581Y-13912D01*
X14689Y-14021D01*
X14581Y-14021D01*
X14366Y-14110D01*
X14201Y-14274D01*
X14196Y-14285D01*
X14192Y-14275D01*
X14028Y-14110D01*
X13844Y-14034D01*
X13844Y-13433D01*
X13832Y-13204D01*
X13768Y-13051D01*
X13662Y-13029D01*
X13341Y-13350D01*
X13662Y-13671D01*
X13768Y-13649D01*
X13844Y-13433D01*
X13844Y-14034D01*
X13813Y-14021D01*
X13584Y-14021D01*
X13581Y-14021D01*
X13366Y-14110D01*
X13311Y-14164D01*
X13285Y-14101D01*
X13201Y-14017D01*
X13091Y-13971D01*
X12826Y-13971D01*
X12751Y-14046D01*
X12751Y-13971D01*
X12735Y-13971D01*
X12841Y-13865D01*
X12841Y-13865D01*
X12885Y-13800D01*
X12888Y-13803D01*
X12942Y-13749D01*
X12964Y-13855D01*
X13180Y-13931D01*
X13409Y-13918D01*
X13562Y-13855D01*
X13584Y-13749D01*
X13263Y-13428D01*
X13258Y-13433D01*
X13180Y-13355D01*
X13185Y-13350D01*
X13180Y-13344D01*
X13258Y-13267D01*
X13263Y-13272D01*
X13584Y-12951D01*
X13562Y-12845D01*
X13497Y-12822D01*
X13561Y-12796D01*
X13707Y-12650D01*
X14194Y-12650D01*
X14194Y-12650D01*
X14309Y-12627D01*
X14309Y-12627D01*
X14407Y-12562D01*
X14448Y-12521D01*
X14532Y-12521D01*
X14689Y-12456D01*
X14808Y-12337D01*
X14873Y-12181D01*
X14873Y-12053D01*
X15444Y-12053D01*
X15524Y-12133D01*
X15654Y-12219D01*
X15741Y-12237D01*
X15738Y-12245D01*
X15738Y-12454D01*
X15817Y-12647D01*
X15965Y-12795D01*
X16097Y-12850D01*
X16097Y-12850D01*
G37*
X16097Y-12850D02*
X15966Y-12904D01*
X15818Y-13052D01*
X15738Y-13245D01*
X15738Y-13454D01*
X15817Y-13647D01*
X15866Y-13696D01*
X15212Y-13696D01*
X15138Y-13621D01*
X15153Y-13607D01*
X15218Y-13451D01*
X15218Y-13281D01*
X15153Y-13125D01*
X15034Y-13006D01*
X14878Y-12941D01*
X14709Y-12941D01*
X14552Y-13005D01*
X14433Y-13125D01*
X14368Y-13281D01*
X14368Y-13450D01*
X14432Y-13606D01*
X14493Y-13667D01*
X14493Y-13700D01*
X14516Y-13815D01*
X14581Y-13912D01*
X14689Y-14021D01*
X14581Y-14021D01*
X14366Y-14110D01*
X14201Y-14274D01*
X14196Y-14285D01*
X14192Y-14275D01*
X14028Y-14110D01*
X13844Y-14034D01*
X13844Y-13433D01*
X13832Y-13204D01*
X13768Y-13051D01*
X13662Y-13029D01*
X13341Y-13350D01*
X13662Y-13671D01*
X13768Y-13649D01*
X13844Y-13433D01*
X13844Y-14034D01*
X13813Y-14021D01*
X13584Y-14021D01*
X13581Y-14021D01*
X13366Y-14110D01*
X13311Y-14164D01*
X13285Y-14101D01*
X13201Y-14017D01*
X13091Y-13971D01*
X12826Y-13971D01*
X12751Y-14046D01*
X12751Y-13971D01*
X12735Y-13971D01*
X12841Y-13865D01*
X12841Y-13865D01*
X12885Y-13800D01*
X12888Y-13803D01*
X12942Y-13749D01*
X12964Y-13855D01*
X13180Y-13931D01*
X13409Y-13918D01*
X13562Y-13855D01*
X13584Y-13749D01*
X13263Y-13428D01*
X13258Y-13433D01*
X13180Y-13355D01*
X13185Y-13350D01*
X13180Y-13344D01*
X13258Y-13267D01*
X13263Y-13272D01*
X13584Y-12951D01*
X13562Y-12845D01*
X13497Y-12822D01*
X13561Y-12796D01*
X13707Y-12650D01*
X14194Y-12650D01*
X14194Y-12650D01*
X14309Y-12627D01*
X14309Y-12627D01*
X14407Y-12562D01*
X14448Y-12521D01*
X14532Y-12521D01*
X14689Y-12456D01*
X14808Y-12337D01*
X14873Y-12181D01*
X14873Y-12053D01*
X15444Y-12053D01*
X15524Y-12133D01*
X15654Y-12219D01*
X15741Y-12237D01*
X15738Y-12245D01*
X15738Y-12454D01*
X15817Y-12647D01*
X15965Y-12795D01*
X16097Y-12850D01*
G36*
X16322Y-8342D02*
X16314Y-8342D01*
X16314Y-8350D01*
X16204Y-8350D01*
X16204Y-8342D01*
X15795Y-8342D01*
X15739Y-8342D01*
X15330Y-8342D01*
X15330Y-8350D01*
X15220Y-8350D01*
X15220Y-8342D01*
X15212Y-8342D01*
X15212Y-8232D01*
X15220Y-8232D01*
X15220Y-8224D01*
X15330Y-8224D01*
X15330Y-8232D01*
X15739Y-8232D01*
X15795Y-8232D01*
X16204Y-8232D01*
X16204Y-8224D01*
X16314Y-8224D01*
X16314Y-8232D01*
X16322Y-8232D01*
X16322Y-8342D01*
X16322Y-8342D01*
G37*
X16322Y-8342D02*
X16314Y-8342D01*
X16314Y-8350D01*
X16204Y-8350D01*
X16204Y-8342D01*
X15795Y-8342D01*
X15739Y-8342D01*
X15330Y-8342D01*
X15330Y-8350D01*
X15220Y-8350D01*
X15220Y-8342D01*
X15212Y-8342D01*
X15212Y-8232D01*
X15220Y-8232D01*
X15220Y-8224D01*
X15330Y-8224D01*
X15330Y-8232D01*
X15739Y-8232D01*
X15795Y-8232D01*
X16204Y-8232D01*
X16204Y-8224D01*
X16314Y-8224D01*
X16314Y-8232D01*
X16322Y-8232D01*
X16322Y-8342D01*
G36*
X18197Y-13036D02*
X18074Y-13086D01*
X17913Y-13247D01*
X17752Y-13087D01*
X17538Y-12998D01*
X17305Y-12997D01*
X17090Y-13086D01*
X16925Y-13251D01*
X16836Y-13465D01*
X16836Y-13698D01*
X16925Y-13913D01*
X17089Y-14078D01*
X17304Y-14167D01*
X17309Y-14167D01*
X17201Y-14274D01*
X17196Y-14285D01*
X17192Y-14275D01*
X17028Y-14110D01*
X16975Y-14088D01*
X16974Y-14082D01*
X16974Y-14082D01*
X16908Y-13984D01*
X16708Y-13783D01*
X16627Y-13729D01*
X16627Y-13729D01*
X16709Y-13648D01*
X16789Y-13455D01*
X16789Y-13246D01*
X16709Y-13053D01*
X16561Y-12905D01*
X16430Y-12850D01*
X16561Y-12796D01*
X16709Y-12648D01*
X16789Y-12455D01*
X16789Y-12374D01*
X16875Y-12461D01*
X16875Y-12548D01*
X16958Y-12749D01*
X17111Y-12902D01*
X17312Y-12986D01*
X17529Y-12986D01*
X17729Y-12903D01*
X17818Y-12815D01*
X17855Y-12906D01*
X17940Y-12990D01*
X18050Y-13036D01*
X18197Y-13036D01*
X18197Y-13036D01*
G37*
X18197Y-13036D02*
X18074Y-13086D01*
X17913Y-13247D01*
X17752Y-13087D01*
X17538Y-12998D01*
X17305Y-12997D01*
X17090Y-13086D01*
X16925Y-13251D01*
X16836Y-13465D01*
X16836Y-13698D01*
X16925Y-13913D01*
X17089Y-14078D01*
X17304Y-14167D01*
X17309Y-14167D01*
X17201Y-14274D01*
X17196Y-14285D01*
X17192Y-14275D01*
X17028Y-14110D01*
X16975Y-14088D01*
X16974Y-14082D01*
X16974Y-14082D01*
X16908Y-13984D01*
X16708Y-13783D01*
X16627Y-13729D01*
X16627Y-13729D01*
X16709Y-13648D01*
X16789Y-13455D01*
X16789Y-13246D01*
X16709Y-13053D01*
X16561Y-12905D01*
X16430Y-12850D01*
X16561Y-12796D01*
X16709Y-12648D01*
X16789Y-12455D01*
X16789Y-12374D01*
X16875Y-12461D01*
X16875Y-12548D01*
X16958Y-12749D01*
X17111Y-12902D01*
X17312Y-12986D01*
X17529Y-12986D01*
X17729Y-12903D01*
X17818Y-12815D01*
X17855Y-12906D01*
X17940Y-12990D01*
X18050Y-13036D01*
X18197Y-13036D01*
G36*
X18534Y-14161D02*
X18504Y-14311D01*
X18504Y-14341D01*
X18499Y-14370D01*
X18499Y-16013D01*
X18486Y-16076D01*
X18467Y-16105D01*
X18439Y-16124D01*
X18375Y-16137D01*
X18244Y-16137D01*
X18316Y-15963D01*
X18317Y-15730D01*
X18228Y-15515D01*
X18063Y-15351D01*
X17849Y-15261D01*
X17616Y-15261D01*
X17401Y-15350D01*
X17347Y-15404D01*
X17321Y-15341D01*
X17236Y-15257D01*
X17126Y-15211D01*
X16862Y-15211D01*
X16787Y-15286D01*
X16787Y-15791D01*
X16795Y-15791D01*
X16795Y-15901D01*
X16787Y-15901D01*
X16787Y-15909D01*
X16677Y-15909D01*
X16677Y-15901D01*
X16669Y-15901D01*
X16669Y-15791D01*
X16677Y-15791D01*
X16677Y-15286D01*
X16602Y-15211D01*
X16515Y-15211D01*
X16549Y-15178D01*
X16580Y-15190D01*
X16812Y-15191D01*
X17027Y-15102D01*
X17192Y-14937D01*
X17196Y-14926D01*
X17200Y-14937D01*
X17365Y-15101D01*
X17580Y-15190D01*
X17812Y-15191D01*
X18027Y-15102D01*
X18192Y-14937D01*
X18281Y-14723D01*
X18281Y-14490D01*
X18192Y-14275D01*
X18028Y-14110D01*
X17813Y-14021D01*
X17808Y-14021D01*
X17913Y-13917D01*
X18073Y-14078D01*
X18288Y-14167D01*
X18521Y-14167D01*
X18534Y-14161D01*
X18534Y-14161D01*
G37*
X18534Y-14161D02*
X18504Y-14311D01*
X18504Y-14341D01*
X18499Y-14370D01*
X18499Y-16013D01*
X18486Y-16076D01*
X18467Y-16105D01*
X18439Y-16124D01*
X18375Y-16137D01*
X18244Y-16137D01*
X18316Y-15963D01*
X18317Y-15730D01*
X18228Y-15515D01*
X18063Y-15351D01*
X17849Y-15261D01*
X17616Y-15261D01*
X17401Y-15350D01*
X17347Y-15404D01*
X17321Y-15341D01*
X17236Y-15257D01*
X17126Y-15211D01*
X16862Y-15211D01*
X16787Y-15286D01*
X16787Y-15791D01*
X16795Y-15791D01*
X16795Y-15901D01*
X16787Y-15901D01*
X16787Y-15909D01*
X16677Y-15909D01*
X16677Y-15901D01*
X16669Y-15901D01*
X16669Y-15791D01*
X16677Y-15791D01*
X16677Y-15286D01*
X16602Y-15211D01*
X16515Y-15211D01*
X16549Y-15178D01*
X16580Y-15190D01*
X16812Y-15191D01*
X17027Y-15102D01*
X17192Y-14937D01*
X17196Y-14926D01*
X17200Y-14937D01*
X17365Y-15101D01*
X17580Y-15190D01*
X17812Y-15191D01*
X18027Y-15102D01*
X18192Y-14937D01*
X18281Y-14723D01*
X18281Y-14490D01*
X18192Y-14275D01*
X18028Y-14110D01*
X17813Y-14021D01*
X17808Y-14021D01*
X17913Y-13917D01*
X18073Y-14078D01*
X18288Y-14167D01*
X18521Y-14167D01*
X18534Y-14161D01*
G36*
X19142Y-13682D02*
X19134Y-13682D01*
X18984Y-13711D01*
X18990Y-13699D01*
X18990Y-13466D01*
X18901Y-13251D01*
X18737Y-13087D01*
X18614Y-13036D01*
X18760Y-13036D01*
X18870Y-12990D01*
X18955Y-12906D01*
X19000Y-12795D01*
X19000Y-12676D01*
X19000Y-12570D01*
X19000Y-12310D01*
X19000Y-12205D01*
X19000Y-12085D01*
X18955Y-11975D01*
X18870Y-11891D01*
X18760Y-11845D01*
X18535Y-11845D01*
X18460Y-11920D01*
X18460Y-12385D01*
X18925Y-12385D01*
X19000Y-12310D01*
X19000Y-12570D01*
X18925Y-12495D01*
X18460Y-12495D01*
X18460Y-12503D01*
X18350Y-12503D01*
X18350Y-12495D01*
X18342Y-12495D01*
X18342Y-12385D01*
X18350Y-12385D01*
X18350Y-11920D01*
X18275Y-11845D01*
X18174Y-11845D01*
X18339Y-11777D01*
X18493Y-11624D01*
X18576Y-11423D01*
X18576Y-11206D01*
X18494Y-11006D01*
X18394Y-10906D01*
X18496Y-10864D01*
X18581Y-10780D01*
X18626Y-10669D01*
X18626Y-10550D01*
X18626Y-10444D01*
X18551Y-10369D01*
X18086Y-10369D01*
X18086Y-10377D01*
X17976Y-10377D01*
X17976Y-10369D01*
X17551Y-10369D01*
X17511Y-10369D01*
X17086Y-10369D01*
X17086Y-10835D01*
X17161Y-10910D01*
X17386Y-10910D01*
X17496Y-10864D01*
X17531Y-10829D01*
X17566Y-10864D01*
X17668Y-10906D01*
X17569Y-11005D01*
X17486Y-11206D01*
X17486Y-11422D01*
X17568Y-11623D01*
X17722Y-11776D01*
X17922Y-11860D01*
X18015Y-11860D01*
X17940Y-11891D01*
X17855Y-11975D01*
X17818Y-12066D01*
X17730Y-11978D01*
X17530Y-11895D01*
X17441Y-11895D01*
X17113Y-11567D01*
X16983Y-11480D01*
X16830Y-11450D01*
X16787Y-11458D01*
X16789Y-11455D01*
X16789Y-11246D01*
X16709Y-11053D01*
X16561Y-10905D01*
X16430Y-10850D01*
X16516Y-10814D01*
X16566Y-10864D01*
X16676Y-10910D01*
X16901Y-10910D01*
X16976Y-10835D01*
X16976Y-10369D01*
X16968Y-10369D01*
X16968Y-10259D01*
X16976Y-10259D01*
X16976Y-9794D01*
X16901Y-9719D01*
X16676Y-9719D01*
X16566Y-9765D01*
X16481Y-9849D01*
X16474Y-9868D01*
X16368Y-9824D01*
X16159Y-9824D01*
X15966Y-9904D01*
X15818Y-10052D01*
X15738Y-10245D01*
X15738Y-10454D01*
X15817Y-10647D01*
X15965Y-10795D01*
X16097Y-10850D01*
X15966Y-10904D01*
X15818Y-11052D01*
X15738Y-11245D01*
X15738Y-11279D01*
X15737Y-11278D01*
X15610Y-11253D01*
X13887Y-11253D01*
X13789Y-11273D01*
X13789Y-11246D01*
X13709Y-11053D01*
X13561Y-10905D01*
X13491Y-10875D01*
X13589Y-10875D01*
X13680Y-10837D01*
X13751Y-10767D01*
X13789Y-10675D01*
X13789Y-10576D01*
X13789Y-10025D01*
X13751Y-9933D01*
X13680Y-9862D01*
X13589Y-9824D01*
X13489Y-9824D01*
X12938Y-9824D01*
X12846Y-9862D01*
X12776Y-9933D01*
X12738Y-10025D01*
X12738Y-10124D01*
X12738Y-10675D01*
X12776Y-10767D01*
X12846Y-10837D01*
X12938Y-10875D01*
X13035Y-10875D01*
X12966Y-10904D01*
X12818Y-11052D01*
X12738Y-11245D01*
X12738Y-11454D01*
X12745Y-11472D01*
X12701Y-11480D01*
X12571Y-11567D01*
X12553Y-11585D01*
X12553Y-11423D01*
X12470Y-11223D01*
X12317Y-11069D01*
X12225Y-11031D01*
X12316Y-10994D01*
X12469Y-10840D01*
X12553Y-10640D01*
X12553Y-10423D01*
X12470Y-10223D01*
X12370Y-10123D01*
X12473Y-10081D01*
X12557Y-9996D01*
X12603Y-9886D01*
X12603Y-9767D01*
X12603Y-9661D01*
X12528Y-9586D01*
X12062Y-9586D01*
X12062Y-9594D01*
X11952Y-9594D01*
X11952Y-9586D01*
X11487Y-9586D01*
X11412Y-9661D01*
X11412Y-9767D01*
X11412Y-9886D01*
X11458Y-9996D01*
X11542Y-10081D01*
X11644Y-10123D01*
X11545Y-10222D01*
X11542Y-10231D01*
X11473Y-10231D01*
X11470Y-10223D01*
X11317Y-10069D01*
X11116Y-9986D01*
X10899Y-9986D01*
X10831Y-10014D01*
X10831Y-9172D01*
X10914Y-9206D01*
X11131Y-9206D01*
X11332Y-9123D01*
X11485Y-8970D01*
X11515Y-8898D01*
X11545Y-8969D01*
X11553Y-8977D01*
X11542Y-8981D01*
X11458Y-9066D01*
X11412Y-9176D01*
X11412Y-9295D01*
X11412Y-9401D01*
X11487Y-9476D01*
X11952Y-9476D01*
X11952Y-9468D01*
X12062Y-9468D01*
X12062Y-9476D01*
X12528Y-9476D01*
X12603Y-9401D01*
X12603Y-9295D01*
X12603Y-9176D01*
X12557Y-9066D01*
X12473Y-8981D01*
X12462Y-8977D01*
X12469Y-8970D01*
X12553Y-8770D01*
X12553Y-8553D01*
X12470Y-8352D01*
X12317Y-8199D01*
X12116Y-8116D01*
X11899Y-8116D01*
X11699Y-8198D01*
X11545Y-8352D01*
X11515Y-8424D01*
X11486Y-8352D01*
X11332Y-8199D01*
X11132Y-8116D01*
X10915Y-8116D01*
X10841Y-8146D01*
X10844Y-8135D01*
X10863Y-8107D01*
X10891Y-8088D01*
X10954Y-8075D01*
X12883Y-8075D01*
X12840Y-8178D01*
X12840Y-8395D01*
X12923Y-8595D01*
X13076Y-8749D01*
X13149Y-8779D01*
X13077Y-8809D01*
X12923Y-8962D01*
X12840Y-9162D01*
X12840Y-9379D01*
X12923Y-9580D01*
X13076Y-9733D01*
X13276Y-9816D01*
X13493Y-9817D01*
X13694Y-9734D01*
X13838Y-9590D01*
X13982Y-9733D01*
X14182Y-9816D01*
X14399Y-9817D01*
X14599Y-9734D01*
X14753Y-9580D01*
X14783Y-9508D01*
X14813Y-9580D01*
X14966Y-9733D01*
X15166Y-9816D01*
X15383Y-9817D01*
X15584Y-9734D01*
X15737Y-9580D01*
X15767Y-9508D01*
X15797Y-9580D01*
X15950Y-9733D01*
X16150Y-9816D01*
X16367Y-9817D01*
X16568Y-9734D01*
X16721Y-9580D01*
X16805Y-9380D01*
X16805Y-9163D01*
X16722Y-8963D01*
X16634Y-8874D01*
X16679Y-8855D01*
X16759Y-8935D01*
X16869Y-8981D01*
X17094Y-8981D01*
X17169Y-8906D01*
X17169Y-8440D01*
X17161Y-8440D01*
X17161Y-8330D01*
X17169Y-8330D01*
X17169Y-8322D01*
X17279Y-8322D01*
X17279Y-8330D01*
X17287Y-8330D01*
X17287Y-8440D01*
X17279Y-8440D01*
X17279Y-8906D01*
X17354Y-8981D01*
X17579Y-8981D01*
X17604Y-8970D01*
X17569Y-9005D01*
X17486Y-9206D01*
X17486Y-9422D01*
X17568Y-9623D01*
X17668Y-9723D01*
X17566Y-9765D01*
X17531Y-9800D01*
X17496Y-9765D01*
X17386Y-9719D01*
X17161Y-9719D01*
X17086Y-9794D01*
X17086Y-10259D01*
X17511Y-10259D01*
X17551Y-10259D01*
X17976Y-10259D01*
X17976Y-10252D01*
X18086Y-10252D01*
X18086Y-10259D01*
X18551Y-10259D01*
X18608Y-10203D01*
X18665Y-10287D01*
X18747Y-10370D01*
X18747Y-10370D01*
X18875Y-10455D01*
X18875Y-10455D01*
X18907Y-10468D01*
X18983Y-10500D01*
X19134Y-10530D01*
X19142Y-10530D01*
X19142Y-13682D01*
X19142Y-13682D01*
G37*
X19142Y-13682D02*
X19134Y-13682D01*
X18984Y-13711D01*
X18990Y-13699D01*
X18990Y-13466D01*
X18901Y-13251D01*
X18737Y-13087D01*
X18614Y-13036D01*
X18760Y-13036D01*
X18870Y-12990D01*
X18955Y-12906D01*
X19000Y-12795D01*
X19000Y-12676D01*
X19000Y-12570D01*
X19000Y-12310D01*
X19000Y-12205D01*
X19000Y-12085D01*
X18955Y-11975D01*
X18870Y-11891D01*
X18760Y-11845D01*
X18535Y-11845D01*
X18460Y-11920D01*
X18460Y-12385D01*
X18925Y-12385D01*
X19000Y-12310D01*
X19000Y-12570D01*
X18925Y-12495D01*
X18460Y-12495D01*
X18460Y-12503D01*
X18350Y-12503D01*
X18350Y-12495D01*
X18342Y-12495D01*
X18342Y-12385D01*
X18350Y-12385D01*
X18350Y-11920D01*
X18275Y-11845D01*
X18174Y-11845D01*
X18339Y-11777D01*
X18493Y-11624D01*
X18576Y-11423D01*
X18576Y-11206D01*
X18494Y-11006D01*
X18394Y-10906D01*
X18496Y-10864D01*
X18581Y-10780D01*
X18626Y-10669D01*
X18626Y-10550D01*
X18626Y-10444D01*
X18551Y-10369D01*
X18086Y-10369D01*
X18086Y-10377D01*
X17976Y-10377D01*
X17976Y-10369D01*
X17551Y-10369D01*
X17511Y-10369D01*
X17086Y-10369D01*
X17086Y-10835D01*
X17161Y-10910D01*
X17386Y-10910D01*
X17496Y-10864D01*
X17531Y-10829D01*
X17566Y-10864D01*
X17668Y-10906D01*
X17569Y-11005D01*
X17486Y-11206D01*
X17486Y-11422D01*
X17568Y-11623D01*
X17722Y-11776D01*
X17922Y-11860D01*
X18015Y-11860D01*
X17940Y-11891D01*
X17855Y-11975D01*
X17818Y-12066D01*
X17730Y-11978D01*
X17530Y-11895D01*
X17441Y-11895D01*
X17113Y-11567D01*
X16983Y-11480D01*
X16830Y-11450D01*
X16787Y-11458D01*
X16789Y-11455D01*
X16789Y-11246D01*
X16709Y-11053D01*
X16561Y-10905D01*
X16430Y-10850D01*
X16516Y-10814D01*
X16566Y-10864D01*
X16676Y-10910D01*
X16901Y-10910D01*
X16976Y-10835D01*
X16976Y-10369D01*
X16968Y-10369D01*
X16968Y-10259D01*
X16976Y-10259D01*
X16976Y-9794D01*
X16901Y-9719D01*
X16676Y-9719D01*
X16566Y-9765D01*
X16481Y-9849D01*
X16474Y-9868D01*
X16368Y-9824D01*
X16159Y-9824D01*
X15966Y-9904D01*
X15818Y-10052D01*
X15738Y-10245D01*
X15738Y-10454D01*
X15817Y-10647D01*
X15965Y-10795D01*
X16097Y-10850D01*
X15966Y-10904D01*
X15818Y-11052D01*
X15738Y-11245D01*
X15738Y-11279D01*
X15737Y-11278D01*
X15610Y-11253D01*
X13887Y-11253D01*
X13789Y-11273D01*
X13789Y-11246D01*
X13709Y-11053D01*
X13561Y-10905D01*
X13491Y-10875D01*
X13589Y-10875D01*
X13680Y-10837D01*
X13751Y-10767D01*
X13789Y-10675D01*
X13789Y-10576D01*
X13789Y-10025D01*
X13751Y-9933D01*
X13680Y-9862D01*
X13589Y-9824D01*
X13489Y-9824D01*
X12938Y-9824D01*
X12846Y-9862D01*
X12776Y-9933D01*
X12738Y-10025D01*
X12738Y-10124D01*
X12738Y-10675D01*
X12776Y-10767D01*
X12846Y-10837D01*
X12938Y-10875D01*
X13035Y-10875D01*
X12966Y-10904D01*
X12818Y-11052D01*
X12738Y-11245D01*
X12738Y-11454D01*
X12745Y-11472D01*
X12701Y-11480D01*
X12571Y-11567D01*
X12553Y-11585D01*
X12553Y-11423D01*
X12470Y-11223D01*
X12317Y-11069D01*
X12225Y-11031D01*
X12316Y-10994D01*
X12469Y-10840D01*
X12553Y-10640D01*
X12553Y-10423D01*
X12470Y-10223D01*
X12370Y-10123D01*
X12473Y-10081D01*
X12557Y-9996D01*
X12603Y-9886D01*
X12603Y-9767D01*
X12603Y-9661D01*
X12528Y-9586D01*
X12062Y-9586D01*
X12062Y-9594D01*
X11952Y-9594D01*
X11952Y-9586D01*
X11487Y-9586D01*
X11412Y-9661D01*
X11412Y-9767D01*
X11412Y-9886D01*
X11458Y-9996D01*
X11542Y-10081D01*
X11644Y-10123D01*
X11545Y-10222D01*
X11542Y-10231D01*
X11473Y-10231D01*
X11470Y-10223D01*
X11317Y-10069D01*
X11116Y-9986D01*
X10899Y-9986D01*
X10831Y-10014D01*
X10831Y-9172D01*
X10914Y-9206D01*
X11131Y-9206D01*
X11332Y-9123D01*
X11485Y-8970D01*
X11515Y-8898D01*
X11545Y-8969D01*
X11553Y-8977D01*
X11542Y-8981D01*
X11458Y-9066D01*
X11412Y-9176D01*
X11412Y-9295D01*
X11412Y-9401D01*
X11487Y-9476D01*
X11952Y-9476D01*
X11952Y-9468D01*
X12062Y-9468D01*
X12062Y-9476D01*
X12528Y-9476D01*
X12603Y-9401D01*
X12603Y-9295D01*
X12603Y-9176D01*
X12557Y-9066D01*
X12473Y-8981D01*
X12462Y-8977D01*
X12469Y-8970D01*
X12553Y-8770D01*
X12553Y-8553D01*
X12470Y-8352D01*
X12317Y-8199D01*
X12116Y-8116D01*
X11899Y-8116D01*
X11699Y-8198D01*
X11545Y-8352D01*
X11515Y-8424D01*
X11486Y-8352D01*
X11332Y-8199D01*
X11132Y-8116D01*
X10915Y-8116D01*
X10841Y-8146D01*
X10844Y-8135D01*
X10863Y-8107D01*
X10891Y-8088D01*
X10954Y-8075D01*
X12883Y-8075D01*
X12840Y-8178D01*
X12840Y-8395D01*
X12923Y-8595D01*
X13076Y-8749D01*
X13149Y-8779D01*
X13077Y-8809D01*
X12923Y-8962D01*
X12840Y-9162D01*
X12840Y-9379D01*
X12923Y-9580D01*
X13076Y-9733D01*
X13276Y-9816D01*
X13493Y-9817D01*
X13694Y-9734D01*
X13838Y-9590D01*
X13982Y-9733D01*
X14182Y-9816D01*
X14399Y-9817D01*
X14599Y-9734D01*
X14753Y-9580D01*
X14783Y-9508D01*
X14813Y-9580D01*
X14966Y-9733D01*
X15166Y-9816D01*
X15383Y-9817D01*
X15584Y-9734D01*
X15737Y-9580D01*
X15767Y-9508D01*
X15797Y-9580D01*
X15950Y-9733D01*
X16150Y-9816D01*
X16367Y-9817D01*
X16568Y-9734D01*
X16721Y-9580D01*
X16805Y-9380D01*
X16805Y-9163D01*
X16722Y-8963D01*
X16634Y-8874D01*
X16679Y-8855D01*
X16759Y-8935D01*
X16869Y-8981D01*
X17094Y-8981D01*
X17169Y-8906D01*
X17169Y-8440D01*
X17161Y-8440D01*
X17161Y-8330D01*
X17169Y-8330D01*
X17169Y-8322D01*
X17279Y-8322D01*
X17279Y-8330D01*
X17287Y-8330D01*
X17287Y-8440D01*
X17279Y-8440D01*
X17279Y-8906D01*
X17354Y-8981D01*
X17579Y-8981D01*
X17604Y-8970D01*
X17569Y-9005D01*
X17486Y-9206D01*
X17486Y-9422D01*
X17568Y-9623D01*
X17668Y-9723D01*
X17566Y-9765D01*
X17531Y-9800D01*
X17496Y-9765D01*
X17386Y-9719D01*
X17161Y-9719D01*
X17086Y-9794D01*
X17086Y-10259D01*
X17511Y-10259D01*
X17551Y-10259D01*
X17976Y-10259D01*
X17976Y-10252D01*
X18086Y-10252D01*
X18086Y-10259D01*
X18551Y-10259D01*
X18608Y-10203D01*
X18665Y-10287D01*
X18747Y-10370D01*
X18747Y-10370D01*
X18875Y-10455D01*
X18875Y-10455D01*
X18907Y-10468D01*
X18983Y-10500D01*
X19134Y-10530D01*
X19142Y-10530D01*
X19142Y-13682D01*
M02*
