%FSLAX34Y34*%
G04 Gerber Fmt 3.4, Leading zero omitted, Abs format*
G04 (created by PCBNEW (2014-05-21 BZR 4875)-product) date Monday 14 July 2014 12:06:10 PM IST*
%MOIN*%
G01*
G70*
G90*
G04 APERTURE LIST*
%ADD10C,0.005906*%
%ADD11C,0.010000*%
%ADD12R,0.350000X0.090000*%
%ADD13C,0.079055*%
%ADD14R,0.079055X0.079055*%
%ADD15C,0.086929*%
%ADD16R,0.086929X0.086929*%
%ADD17R,0.075118X0.075118*%
%ADD18C,0.075118*%
G04 APERTURE END LIST*
G54D10*
G54D11*
X18405Y-16437D02*
X10925Y-16437D01*
X23523Y-10629D02*
X23523Y-13582D01*
X23129Y-10236D02*
X19192Y-10236D01*
X23129Y-13976D02*
X19192Y-13976D01*
X23129Y-13976D02*
G75*
G03X23523Y-13582I0J393D01*
G74*
G01*
X23523Y-10629D02*
G75*
G03X23129Y-10236I-393J0D01*
G74*
G01*
X10925Y-7775D02*
X18405Y-7775D01*
X10531Y-16043D02*
X10531Y-8169D01*
X10531Y-16043D02*
G75*
G03X10925Y-16437I393J0D01*
G74*
G01*
X10925Y-7775D02*
G75*
G03X10531Y-8169I0J-393D01*
G74*
G01*
X18799Y-9842D02*
X18799Y-8169D01*
X18799Y-16043D02*
X18799Y-14370D01*
X18799Y-8169D02*
G75*
G03X18405Y-7775I-393J0D01*
G74*
G01*
X18799Y-9842D02*
G75*
G03X19192Y-10236I393J0D01*
G74*
G01*
X18405Y-16437D02*
G75*
G03X18799Y-16043I0J393D01*
G74*
G01*
X19192Y-13976D02*
G75*
G03X18799Y-14370I0J-393D01*
G74*
G01*
G54D12*
X21758Y-13106D03*
X21758Y-11106D03*
G54D13*
X15275Y-9271D03*
G54D14*
X15275Y-8287D03*
G54D13*
X16259Y-9271D03*
G54D14*
X16259Y-8287D03*
G54D13*
X17421Y-12440D03*
G54D14*
X18405Y-12440D03*
G54D13*
X18208Y-8385D03*
G54D14*
X17224Y-8385D03*
G54D15*
X11712Y-14582D03*
X11712Y-13582D03*
X11712Y-12582D03*
X17696Y-14606D03*
X16696Y-14606D03*
X15696Y-14606D03*
X14696Y-14606D03*
X13696Y-14606D03*
G54D16*
X12696Y-14606D03*
G54D15*
X14681Y-15846D03*
X13681Y-15846D03*
G54D16*
X12681Y-15846D03*
G54D15*
X15732Y-15846D03*
G54D16*
X16732Y-15846D03*
G54D15*
X17732Y-15846D03*
X11675Y-15850D03*
G54D13*
X13385Y-9271D03*
X13385Y-8287D03*
X11023Y-8661D03*
X12007Y-8661D03*
G54D14*
X17031Y-10314D03*
G54D13*
X18031Y-11314D03*
X18031Y-9314D03*
G54D14*
X18031Y-10314D03*
G54D13*
X11007Y-10531D03*
X12007Y-11531D03*
G54D14*
X12007Y-9531D03*
G54D13*
X12007Y-10531D03*
X18405Y-13582D03*
X17421Y-13582D03*
X14291Y-8287D03*
X14291Y-9271D03*
G54D17*
X13263Y-10350D03*
G54D18*
X13263Y-11350D03*
X13263Y-12350D03*
X13263Y-13350D03*
X16263Y-13350D03*
X16263Y-12350D03*
X16263Y-11350D03*
X16263Y-10350D03*
M02*
