M48
INCH,TZ
T1C0.025
T2C0.031
T3C0.043
%
G90
G05
T1
X1.4449Y-1.2096
X1.4793Y-1.3366
X1.5256Y-1.2854
T2
X1.1008Y-1.0531
X1.1024Y-0.8661
X1.2008Y-0.8661
X1.2008Y-0.9531
X1.2008Y-1.0531
X1.2008Y-1.1531
X1.3264Y-1.035
X1.3264Y-1.135
X1.3264Y-1.235
X1.3264Y-1.335
X1.3386Y-0.8287
X1.3386Y-0.9272
X1.4291Y-0.8287
X1.4291Y-0.9272
X1.5276Y-0.8287
X1.5276Y-0.9272
X1.626Y-0.8287
X1.626Y-0.9272
X1.6264Y-1.035
X1.6264Y-1.135
X1.6264Y-1.235
X1.6264Y-1.335
X1.7031Y-1.0315
X1.7224Y-0.8386
X1.7421Y-1.2441
X1.7421Y-1.3583
X1.8031Y-0.9315
X1.8031Y-1.0315
X1.8031Y-1.1315
X1.8209Y-0.8386
X1.8406Y-1.2441
X1.8406Y-1.3583
T3
X1.1675Y-1.585
X1.1713Y-1.2583
X1.1713Y-1.3583
X1.1713Y-1.4583
X1.2681Y-1.5846
X1.2697Y-1.4606
X1.3681Y-1.5846
X1.3697Y-1.4606
X1.4681Y-1.5846
X1.4697Y-1.4606
X1.5697Y-1.4606
X1.5732Y-1.5846
X1.6697Y-1.4606
X1.6732Y-1.5846
X1.7697Y-1.4606
X1.7732Y-1.5846
X2.0358Y-1.1106
X2.0358Y-1.3106
T0
M30
